<?xml version="1.0" encoding="UTF-8" standalone="no"?>
<svg
   width="800"
   height="600"
   viewBox="0 0 800 600"
   fill="none"
   version="1.1"
   id="svg3"
   sodipodi:docname="placeholder.svg"
   inkscape:version="1.4.2 (ebf0e940, 2025-05-08)"
   xmlns:inkscape="http://www.inkscape.org/namespaces/inkscape"
   xmlns:sodipodi="http://sodipodi.sourceforge.net/DTD/sodipodi-0.dtd"
   xmlns="http://www.w3.org/2000/svg"
   xmlns:svg="http://www.w3.org/2000/svg">
  <sodipodi:namedview
     id="namedview3"
     pagecolor="#ffffff"
     bordercolor="#000000"
     borderopacity="0.25"
     inkscape:showpageshadow="2"
     inkscape:pageopacity="0.0"
     inkscape:pagecheckerboard="0"
     inkscape:deskcolor="#d1d1d1"
     inkscape:zoom="1.06"
     inkscape:cx="400"
     inkscape:cy="300"
     inkscape:window-width="2560"
     inkscape:window-height="1387"
     inkscape:window-x="0"
     inkscape:window-y="25"
     inkscape:window-maximized="1"
     inkscape:current-layer="g2" />
  <g
     clip-path="url(#a)"
     id="g2">
    <path
       d="M800 0H0v600h800z"
       fill="#EFF1F3"
       id="path1" />
    <path
       fill-rule="evenodd"
       clip-rule="evenodd"
       d="M225 159.877c.067-9.562 7.797-17.301 17.36-17.377h315.28c9.59 0 17.36 7.787 17.36 17.377v280.246c-.067 9.562-7.797 17.301-17.36 17.377H242.36c-9.59-.009-17.36-7.787-17.36-17.377zm315.002 17.624h-280v245l162.61-162.646c6.834-6.831 17.911-6.831 24.745 0l92.645 92.82zm-245.004 69.998c0 19.33 15.67 35 35 35s35-15.67 35-35-15.67-35-35-35-35 15.67-35 35"
       fill="#03856F"
       id="path2"
       style="fill:#345cac;fill-opacity:1" />
  </g>
  <defs
     id="defs3">
    <clipPath
       id="a">
      <path
         fill="#fff"
         d="M0 0h800v600H0z"
         id="path3" />
    </clipPath>
  </defs>
</svg>
