<?xml version="1.0" encoding="UTF-8" standalone="no"?>
<svg
   width="3200"
   height="3200"
   viewBox="0 0 3200 3200"
   version="1.1"
   id="svg2"
   sodipodi:docname="efa44-logo.svg"
   inkscape:export-filename="efa44-logo.jpg"
   inkscape:export-xdpi="15"
   inkscape:export-ydpi="15"
   inkscape:version="1.4.2 (ebf0e940, 2025-05-08)"
   xmlns:inkscape="http://www.inkscape.org/namespaces/inkscape"
   xmlns:sodipodi="http://sodipodi.sourceforge.net/DTD/sodipodi-0.dtd"
   xmlns="http://www.w3.org/2000/svg"
   xmlns:svg="http://www.w3.org/2000/svg">
  <defs
     id="defs2">
    <inkscape:path-effect
       effect="fillet_chamfer"
       id="path-effect5"
       is_visible="true"
       lpeversion="1"
       nodesatellites_param="F,0,0,1,0,0,0,1 @ F,0,0,1,0,0,0,1 @ F,0,0,1,0,0,0,1 @ F,0,0,1,0,0,0,1 @ F,0,0,1,0,0,0,1 @ F,0,0,1,0,0,0,1 @ F,0,0,1,0,0,0,1 @ F,0,0,1,0,0,0,1 @ F,0,0,1,0,0,0,1 @ F,0,0,1,0,0,0,1 @ F,0,0,1,0,0,0,1 @ F,0,0,1,0,0,0,1 @ F,0,0,1,0,0,0,1 @ F,0,0,1,0,0,0,1 @ F,0,0,1,0,0,0,1 @ F,0,0,1,0,0,0,1 @ F,0,0,1,0,0,0,1 @ F,0,0,1,0,0,0,1 @ F,0,0,1,0,0,0,1 @ F,0,0,1,0,0,0,1 @ F,0,0,1,0,0,0,1 @ F,0,0,1,0,0,0,1 @ F,0,0,1,0,0,0,1 @ F,0,0,1,0,0,0,1 @ F,0,0,1,0,0,0,1 @ F,0,0,1,0,0,0,1 @ F,0,0,1,0,0,0,1 @ F,0,0,1,0,0,0,1 @ F,0,0,1,0,0,0,1 @ F,0,0,1,0,0,0,1 @ F,0,0,1,0,0,0,1 @ F,0,0,1,0,0,0,1 @ F,0,0,1,0,0,0,1 @ F,0,0,1,0,0,0,1 @ F,0,0,1,0,0,0,1 @ F,0,0,1,0,0,0,1 @ F,0,0,1,0,0,0,1 @ F,0,0,1,0,0,0,1 | F,0,0,1,0,0,0,1 @ F,0,0,1,0,0,0,1 @ F,0,0,1,0,0,0,1 @ F,0,0,1,0,0,0,1 @ F,0,0,1,0,0,0,1 @ F,0,0,1,0,0,0,1 @ F,0,0,1,0,0,0,1 @ F,0,0,1,0,0,0,1 @ F,0,0,1,0,0,0,1 @ F,0,0,1,0,0,0,1"
       radius="0"
       unit="px"
       method="auto"
       mode="F"
       chamfer_steps="1"
       flexible="false"
       use_knot_distance="true"
       apply_no_radius="true"
       apply_with_radius="true"
       only_selected="false"
       hide_knots="false" />
  </defs>
  <sodipodi:namedview
     id="namedview2"
     pagecolor="#ffffff"
     bordercolor="#000000"
     borderopacity="0"
     inkscape:showpageshadow="2"
     inkscape:pageopacity="0.0"
     inkscape:pagecheckerboard="true"
     inkscape:deskcolor="#d1d1d1"
     inkscape:zoom="0.28983784"
     inkscape:cx="698.66654"
     inkscape:cy="1317.9784"
     inkscape:window-width="2560"
     inkscape:window-height="1387"
     inkscape:window-x="0"
     inkscape:window-y="25"
     inkscape:window-maximized="1"
     inkscape:current-layer="svg2"
     showborder="false"
     inkscape:antialias-rendering="true" />
  <g
     id="g26"
     transform="translate(227.28316,155.64005)">
    <g
       id="layer1"
       inkscape:label="Enfance &amp; Familles d'Adoption"
       style="display:inline">
      <g
         id="g2"
         style="display:none"
         sodipodi:insensitive="true">
        <g
           id="layer3"
           inkscape:label="Enfance &amp;"
           transform="translate(726.746)">
          <path
             d="m 258.326,2186.044 c -12.773,2.526 -19.265,11.676 -19.304,27.206 L 239,2222 h -4.5 -4.5 v 8.5 8.5 h 4.5 4.5 v 35 35 h 11 11 v -35 -35 h 8.5 8.5 v -8.5 -8.5 h -8.613 -8.613 l 0.396,-6.997 c 0.509,-9.008 1.715,-10.274 10.318,-10.821 l 6.512,-0.415 v -9.383 -9.384 l -7.75,0.11 c -4.262,0.06 -9.628,0.48 -11.924,0.934 M 42,2248 v 61 H 82.5 123 V 2298.5 2288 H 94.5 66 v -15 -15 h 24 24 V 2247.5 2237 H 90 66 V 2222.5 2208 H 94.5 123 V 2197.5 2187 H 82.5 42 v 61 m 138.461,-28.909 c -5.07,0.643 -9.626,2.536 -14.711,6.111 l -2.75,1.934 v -4.102 -4.102 l -10.75,0.284 -10.75,0.284 -0.26,44.75 -0.261,44.75 h 10.956 10.955 l 0.305,-29.75 c 0.337,-32.881 0.497,-33.785 6.703,-37.963 4.455,-2.999 12.225,-3.119 16.912,-0.261 5.86,3.572 6.19,5.623 6.19,38.442 V 2309 h 11 11 l -0.033,-33.25 c -0.028,-28.883 -0.26,-33.908 -1.764,-38.258 -4.58,-13.244 -17.249,-20.364 -32.742,-18.401 m 132.114,0.063 c -8.951,0.884 -16.455,4.024 -21.033,8.802 -1.593,1.663 -2.692,3.14 -2.443,3.284 0.249,0.143 3.415,3.108 7.035,6.59 l 6.581,6.33 4.631,-3.264 c 4.278,-3.016 5.229,-3.264 12.484,-3.264 12.302,0 16.95,3.942 17.114,14.515 l 0.056,3.647 -16.25,0.435 c -17.813,0.475 -20.787,1.23 -27.272,6.924 -5.963,5.236 -7.96,10.103 -7.938,19.347 0.017,6.967 0.403,8.7 2.99,13.423 5.265,9.613 12.813,13.366 26.97,13.412 8.21,0.027 15.479,-2.196 19.713,-6.028 1.685,-1.525 1.787,-1.408 1.787,2.038 V 2309 h 11 11 v -32.318 c 0,-35.492 -0.425,-38.827 -5.911,-46.401 -1.907,-2.633 -5.062,-5.111 -9.031,-7.094 -5.513,-2.755 -8.259,-3.36 -20.558,-4.53 -1.65,-0.157 -6.566,0.067 -10.925,0.497 M 419,2219.087 c -5.891,0.944 -9.767,2.498 -13.685,5.486 l -3.194,2.436 -0.31,-3.754 -0.311,-3.755 -10.75,-0.284 -10.75,-0.284 v 45.034 45.034 h 11 11 v -29.184 c 0,-27.036 0.146,-29.485 1.979,-33.272 2.564,-5.296 6.443,-7.544 13.021,-7.544 6.062,0 9.936,1.961 12.614,6.386 1.718,2.836 1.913,5.814 2.19,33.364 l 0.304,30.25 h 10.995 10.995 l -0.299,-34.25 c -0.293,-33.546 -0.348,-34.358 -2.662,-39.477 -5.404,-11.953 -18.233,-18.414 -32.137,-16.186 m 84.725,0.15 c -12.114,1.358 -23.333,9.094 -28.268,19.494 -6.251,13.174 -6.788,33.291 -1.281,48.01 2.446,6.536 10.548,15.578 16.795,18.744 6.429,3.258 15.98,4.823 24.319,3.986 7.52,-0.755 18.541,-5.534 22.512,-9.76 l 2.214,-2.357 -7.5,-7.273 -7.5,-7.272 -3.053,2.569 c -8.704,7.323 -20.959,5.175 -26.173,-4.589 -2.036,-3.813 -2.29,-5.676 -2.29,-16.789 0,-11.798 0.153,-12.76 2.716,-17.12 3.568,-6.069 8.049,-8.246 15.82,-7.684 4.373,0.317 6.663,1.099 9.465,3.237 l 3.697,2.82 7.382,-7.332 7.382,-7.333 -2.196,-2.337 c -1.208,-1.285 -5.014,-3.725 -8.46,-5.421 -7.245,-3.567 -15.484,-4.724 -25.581,-3.593 m 78.611,-0.075 c -11.572,1.31 -22.03,8.437 -27.173,18.519 -8.93,17.505 -7.401,45.591 3.19,58.585 13.471,16.525 45.216,18.218 62.209,3.318 l 3.938,-3.453 -6.643,-6.699 -6.642,-6.699 -3.858,3.01 c -6.527,5.093 -14.949,6.609 -23.509,4.232 -6.121,-1.701 -12.812,-10.935 -12.842,-17.725 -0.005,-0.97 6.258,-1.25 27.994,-1.25 h 28 v -9.411 c 0,-14.766 -4.388,-26.189 -13.072,-34.035 -7.723,-6.978 -18.59,-9.864 -31.592,-8.392 M 582,2238.066 c -5.612,2.354 -8.529,6.6 -10.429,15.184 l -0.609,2.75 H 587.981 605 v -2.788 c 0,-3.805 -3.911,-11.166 -7.209,-13.568 -3.139,-2.286 -11.992,-3.171 -15.791,-1.578 m -268.705,34.041 c -4.185,1.21 -6.303,4.377 -6.263,9.366 0.055,6.995 3.915,9.769 13.514,9.714 10.922,-0.063 15.25,-3.847 16.184,-14.151 l 0.548,-6.036 -10.389,0.09 c -5.714,0.05 -11.831,0.507 -13.594,1.017"
             stroke="none"
             fill="#345cac"
             fill-rule="evenodd"
             id="Enfance"
             style="display:inline"
             sodipodi:nodetypes="csccccccccccccccccccccccccccccccccccccccccccccccccccccccccccccccsscscccccccscsccscccsssssscccsscsccscccccccccscscscccscccscssccccsssscccccccccscscccsccscssccscccsscccscccc" />
          <path
             d="m 707.205,2187.894 c -7.118,2.459 -12.125,6.716 -15.538,13.214 -2.562,4.876 -2.798,6.157 -2.465,13.392 0.403,8.766 2.304,13.845 7.99,21.336 l 3.291,4.337 -2.992,2.091 c -5.179,3.62 -13.27,12.385 -15.598,16.897 -3.008,5.83 -3.756,18.36 -1.549,25.95 3.301,11.356 11.16,19.203 22.636,22.602 3.471,1.028 9.418,1.661 16.02,1.705 12.303,0.083 17.916,-1.49 26.323,-7.379 l 5.517,-3.865 4.319,5.413 4.32,5.413 h 14.447 14.448 l -2.52,-2.75 c -1.387,-1.512 -6.445,-7.361 -11.24,-12.998 l -8.719,-10.247 2.512,-3.295 C 773.591,2272.915 779,2256.487 779,2247.542 V 2245 h -10.364 -10.364 l -0.645,4.75 c -0.829,6.102 -3.375,13.796 -5.015,15.157 -0.975,0.809 -3.684,-1.769 -11.392,-10.842 l -10.113,-11.903 7.435,-5.596 c 9.706,-7.305 13.435,-13.444 13.449,-22.138 0.019,-12.619 -6.341,-22.17 -17.558,-26.367 -7.178,-2.686 -19.713,-2.762 -27.228,-0.167 m 6.718,20.029 c -4.935,4.935 -3.754,9.982 4.664,19.941 0.624,0.739 7.408,-4.07 9.871,-6.996 5.751,-6.835 1.668,-15.868 -7.171,-15.868 -3.575,0 -5.011,0.57 -7.364,2.923 m -6.96,50.829 c -7.601,7.6 -8.765,15.597 -3.398,23.341 5.223,7.538 17.294,9.546 27.2,4.526 2.802,-1.42 5.343,-2.984 5.647,-3.477 0.527,-0.853 -22.875,-29.142 -24.108,-29.142 -0.324,0 -2.728,2.138 -5.341,4.752"
             stroke="none"
             fill="#345cac"
             fill-rule="evenodd"
             id="path6"
             style="display:inline"
             sodipodi:nodetypes="cccccsscscscccccccccscccssccscsccccscccscsc"
             inkscape:label="&amp;" />
        </g>
        <g
           id="layer4"
           inkscape:label="Familles d'Adoption"
           transform="translate(-798,152)">
          <path
             d="m 1178.942,2180.938 c -5.109,1.571 -7.168,3.319 -9.128,7.75 -2.31,5.221 -1.888,9.677 1.301,13.731 6.07,7.717 18.011,7.343 22.925,-0.718 2.402,-3.938 2.555,-10.885 0.324,-14.661 -2.863,-4.848 -10.139,-7.727 -15.422,-6.102 M 840,2248 v 61 h 11.483 11.482 l 0.268,-24.75 0.267,-24.75 24.25,-0.268 24.25,-0.268 V 2248.482 2238 H 887.5 863 v -15 -15 h 28.5 28.5 v -10.5 -10.5 h -40 -40 v 61 m 374.006,-10.75 c 0,31.531 0.391,51.638 1.04,53.975 1.47,5.295 6.808,11.866 11.947,14.708 3.687,2.039 6.152,2.506 15.204,2.879 l 10.803,0.445 v -9.629 -9.628 h -5.889 c -4.123,0 -6.534,-0.525 -8.04,-1.75 -2.149,-1.749 -2.15,-1.768 -2.094,-51.5 l 0.055,-49.75 H 1225.516 1214 l 0.01,50.25 m 52.888,-1.5 c -0.058,26.813 -0.032,50.1 0.058,51.75 0.254,4.643 4.837,13.237 8.581,16.093 4.835,3.688 11.552,5.407 21.126,5.407 H 1305 v -9.5 -9.5 h -6 c -10.744,0 -10,3.982 -10,-53.5 V 2187 h -11 -11 l -0.106,48.75 m -309.73,-16.623 c -7.982,0.743 -17.955,4.893 -21.931,9.125 l -2.196,2.338 6.922,6.869 6.922,6.869 3.486,-2.659 c 4.857,-3.704 11.969,-5.078 19.29,-3.725 8.072,1.493 10.579,4.172 11.138,11.904 l 0.43,5.938 -15.863,0.393 c -17.312,0.429 -21.254,1.455 -28.227,7.349 -8.987,7.595 -10.032,26.277 -2.031,36.306 8.218,10.302 30.473,13.078 41.655,5.196 2.365,-1.666 4.511,-3.03 4.77,-3.03 0.259,0 0.471,1.575 0.471,3.5 v 3.5 h 10.5 10.5 v -33.322 c 0,-37.102 -0.288,-39.149 -6.527,-46.438 -7.013,-8.194 -21.076,-11.811 -39.309,-10.113 m 110.262,-0.514 c -0.509,0.126 -3.01,0.51 -5.557,0.852 -2.559,0.344 -7.144,2.135 -10.25,4.005 l -5.619,3.384 v -3.961 -3.961 l -10.75,0.284 -10.75,0.284 -0.26,44.75 -0.261,44.75 h 10.944 10.943 l 0.317,-29.75 c 0.35,-32.877 0.511,-33.787 6.715,-37.963 4.455,-2.999 12.225,-3.119 16.912,-0.261 5.86,3.572 6.19,5.623 6.19,38.442 V 2309 h 10.933 10.933 l 0.317,-29.75 c 0.35,-32.877 0.511,-33.787 6.715,-37.963 2.391,-1.61 4.85,-2.287 8.3,-2.287 6.022,0 10.273,2.085 12.842,6.299 1.823,2.988 1.953,5.213 1.956,33.451 V 2309 h 11.583 11.583 l -0.376,-32.75 c -0.362,-31.57 -0.46,-32.964 -2.726,-38.691 -4.963,-12.543 -14.987,-18.82 -29.886,-18.713 -9.016,0.065 -14.572,1.812 -21.43,6.74 l -4.982,3.579 -3.133,-2.97 c -1.723,-1.634 -4.667,-3.745 -6.542,-4.691 -3.141,-1.584 -12.499,-3.43 -14.665,-2.891 m 281.074,0.547 c -18.394,2.134 -29.563,14.846 -32.512,37.001 -2.048,15.391 1.299,31.436 8.365,40.105 13.471,16.525 45.216,18.218 62.209,3.318 l 3.938,-3.453 -6.528,-6.584 -6.528,-6.584 -3.972,2.87 c -6.977,5.043 -15.194,6.483 -23.624,4.142 -6.121,-1.701 -12.812,-10.935 -12.842,-17.725 -0.01,-0.97 6.258,-1.25 27.994,-1.25 h 28 l -0.012,-9.25 c -0.013,-10.262 -1.414,-16.744 -5.248,-24.29 -3.073,-6.047 -10.248,-12.913 -16.289,-15.585 -5.583,-2.469 -15.23,-3.611 -22.951,-2.715 m 85.97,-0.023 c -12.192,1.402 -23.389,9.186 -26.536,18.447 -1.696,4.988 -1.708,13.808 -0.027,18.752 3.373,9.919 10.929,14.011 29.683,16.078 14.633,1.613 17.72,3.091 18.207,8.717 0.871,10.049 -18.228,13.077 -33.577,5.323 l -6.72,-3.396 -7,7.027 -7,7.027 3,2.536 c 6.318,5.339 14.771,8.446 26.102,9.592 18.16,1.836 31.719,-1.561 40.241,-10.083 9.519,-9.519 9.393,-27.419 -0.259,-36.711 -5.067,-4.879 -11.279,-7.012 -24.584,-8.44 -13.07,-1.404 -14.777,-1.85 -16.499,-4.308 -2.263,-3.23 -1.841,-7.031 1.085,-9.774 2.37,-2.222 3.392,-2.423 12.25,-2.413 8.556,0.01 10.197,0.31 14.315,2.624 l 4.652,2.614 6.848,-6.932 c 6.646,-6.727 6.79,-6.978 4.849,-8.484 -8.372,-6.496 -24.452,-9.873 -39.03,-8.196 m -262.768,0.498 c -0.384,0.384 -0.698,20.648 -0.698,45.032 V 2309 h 11.51 11.511 l -0.261,-44.75 -0.26,-44.75 -10.552,-0.282 c -5.803,-0.155 -10.865,0.033 -11.25,0.417 m 175.802,18.721 c -4.515,2.09 -7.654,6.043 -9.027,11.365 -0.678,2.629 -1.035,5.117 -0.794,5.529 0.242,0.412 7.896,0.75 17.01,0.75 h 16.571 l -0.52,-4.614 c -0.554,-4.913 -2.714,-8.531 -7.01,-11.738 -3.357,-2.506 -12.103,-3.202 -16.23,-1.292 m -389,33.494 c -5.092,1.655 -7.5,4.918 -7.5,10.161 0,4.29 4.677,8.942 9.173,9.123 15.821,0.639 20.827,-2.991 20.827,-15.102 V 2271 l -10.25,0.1 c -5.638,0.055 -11.15,0.392 -12.25,0.75"
             stroke="none"
             fill="#345cac"
             fill-rule="evenodd"
             id="path5"
             style="display:inline"
             sodipodi:nodetypes="ccscccccccccccccccccccccccccssscccsccccccccsscccsscccccscccscccscccsscccssccsccccccccccsscscccssscccccsssccccccccsccccccscscscccsscccccccsccsssscssccscccccsccscscssccscscsc"
             inkscape:label="Familles" />
          <path
             d="m 2112.751,2180.708 c -4.056,0.627 -9.451,6.178 -10.276,10.573 -0.954,5.086 0.016,8.193 3.868,12.397 2.732,2.98 4.107,3.651 8.219,4.006 6.216,0.537 11.059,-1.837 13.603,-6.668 5.706,-10.837 -2.946,-22.236 -15.414,-20.308 M 1579,2207.051 v 20.051 l -3.304,-2.52 c -5.446,-4.154 -10.249,-5.651 -18.266,-5.693 -10.253,-0.053 -16.653,2.234 -22.399,8.005 -7.253,7.286 -8.531,12.917 -8.531,37.606 0,23.633 1.123,28.966 7.573,35.964 9.731,10.556 29.302,12.476 40.449,3.967 l 4.478,-3.418 v 3.994 3.993 h 11 11 v -61 -61 h -11 -11 v 20.051 m 43,-0.929 c 0,15.146 0.26,18.922 1.25,18.158 0.688,-0.53 5.862,-4.427 11.5,-8.659 l 10.25,-7.694 V 2197.463 2187 h -11.5 -11.5 v 19.122 m 75.887,-16.372 c -4.309,11.149 -42.887,117.621 -42.887,118.367 0,0.556 4.979,0.829 12.119,0.664 l 12.119,-0.281 3.671,-10.5 3.67,-10.5 h 21.894 21.893 l 3.533,10.75 3.533,10.75 h 12.391 c 9.491,0 12.284,-0.293 11.932,-1.25 -0.253,-0.687 -10.267,-28.137 -22.255,-61 L 1717.704,2187 h -9.377 c -9.305,0 -9.385,0.021 -10.44,2.75 M 1821,2206.622 v 19.622 l -2.25,-1.617 c -4.745,-3.411 -7.884,-4.672 -13.469,-5.414 -18.339,-2.435 -31.218,5.57 -35.053,21.787 -2.995,12.664 -2.232,40.881 1.391,51.433 3.758,10.946 14.029,16.986 28.881,16.984 8.381,-10e-4 11.519,-1.048 18.25,-6.086 l 3.25,-2.433 v 4.051 4.051 h 11 11 v -61 -61 h -11.5 -11.5 v 19.622 m 229,2.378 v 13 h -4.5 -4.5 v 8.5 8.5 h 4.439 4.44 l 0.31,26.25 c 0.292,24.668 0.441,26.491 2.469,30.25 5.026,9.314 11.135,12.552 25.018,13.26 l 10.324,0.527 v -9.643 -9.644 h -5.545 c -4.555,0 -5.985,-0.439 -8,-2.455 L 2072,2285.091 V 2262.045 2239 h 8 8 v -8.5 -8.5 h -8 -8 v -13 -13 h -11 -11 v 13 m -157.267,10.066 c -12.111,1.414 -22.917,9.304 -27.771,20.278 -2.981,6.74 -4.369,22.613 -3.052,34.906 1.35,12.594 4.892,20.649 11.726,26.664 7.058,6.213 13.868,8.428 26.011,8.461 9.693,0.026 10.484,-0.137 17.545,-3.627 10.297,-5.089 16.201,-12.847 18.681,-24.547 1.432,-6.759 1.451,-26.06 0.032,-33.736 -3.68,-19.908 -20.596,-31.035 -43.172,-28.399 m 100.544,0.022 c -5.045,0.663 -13.334,4.633 -14.979,7.174 -0.502,0.774 -0.989,-0.261 -1.302,-2.762 l -0.5,-4 h -10.5 -10.5 l -0.258,61.25 -0.257,61.25 h 11.007 11.008 v -20 c 0,-11 0.229,-20 0.509,-20 0.279,0 2.337,1.325 4.573,2.944 7.676,5.561 20.684,6.363 31.026,1.914 5.323,-2.29 11.311,-8.223 13.439,-13.316 3.186,-7.625 4.398,-31.559 2.404,-47.463 -1.648,-13.138 -5.881,-19.788 -15.342,-24.101 -6.798,-3.098 -12.535,-3.914 -20.328,-2.89 m 183.047,0.082 c -12.671,1.42 -23.942,9.999 -28.412,21.628 -2.652,6.898 -3.818,29.041 -2.032,38.596 3.232,17.298 15.013,28.388 31.962,30.09 17.912,1.799 32.206,-5.619 38.868,-20.171 5.258,-11.484 5.393,-38.5 0.252,-50.124 -6.554,-14.814 -21.475,-22.165 -40.638,-20.019 M 2278,2219.047 c -5.942,1.005 -9.799,2.562 -13.679,5.522 -1.753,1.337 -3.443,2.431 -3.754,2.431 -0.312,0 -0.567,-1.8 -0.567,-4 v -4 h -10.5 -10.5 v 45 45 h 10.947 10.946 l 0.304,-30.75 c 0.266,-26.982 0.511,-31.043 1.998,-33.144 3.052,-4.311 6.869,-6.092 13.07,-6.099 5.116,-0.01 6.163,0.359 9.303,3.243 2.24,2.058 3.876,4.717 4.461,7.25 0.508,2.2 0.934,16.488 0.947,31.75 L 2291,2309 h 11.06 11.06 l -0.31,-34.25 c -0.293,-32.357 -0.426,-34.502 -2.416,-38.801 -2.733,-5.908 -7.772,-11.591 -12.346,-13.924 -3.213,-1.64 -5.631,-2.253 -13.548,-3.44 -1.1,-0.165 -4.025,0.043 -6.5,0.462 M 2105,2264 v 45 h 11 11 v -45 -45 h -11 -11 v 45 m -403.861,-19.3 c -3.938,11.44 -7.156,21.138 -7.15,21.55 0.01,0.412 6.75,0.75 14.986,0.75 h 14.976 l -7.094,-20.75 c -3.902,-11.412 -7.423,-21.11 -7.825,-21.55 -0.403,-0.44 -3.954,8.56 -7.893,20 m -146.996,-3.167 c -4.537,3.817 -5.621,8.255 -5.614,22.967 0.01,14.426 1.339,18.947 6.746,22.9 3.64,2.66 12.27,2.783 16.167,0.23 5.096,-3.339 6.908,-9.537 6.908,-23.63 0,-19.469 -3.479,-25 -15.724,-25 -4.397,0 -6.064,0.498 -8.483,2.533 m 244.369,-1.32 c -5.991,3.473 -7.975,11.081 -7.284,27.93 0.401,9.786 0.834,12.221 2.714,15.263 2.92,4.724 5.367,5.927 12.058,5.927 6.719,0 9.137,-1.201 12.113,-6.016 1.968,-3.183 2.352,-5.398 2.718,-15.651 0.55,-15.437 -0.733,-21.495 -5.426,-25.615 -3.02,-2.652 -4.222,-3.047 -9.19,-3.021 -3.143,0.017 -6.609,0.549 -7.703,1.183 m 92.787,0.747 c -5.855,3.569 -6.799,6.768 -6.799,23.04 0,15.93 0.88,18.966 6.775,23.36 3.824,2.85 12.576,2.871 16.45,0.04 5.487,-4.011 6.76,-8.431 6.742,-23.4 -0.018,-15.268 -1.35,-19.738 -6.887,-23.114 -4.151,-2.532 -12.068,-2.496 -16.281,0.074 m 92.414,0.051 c -5.161,4.06 -7.608,17.864 -5.74,32.387 0.753,5.855 1.67,8.757 3.548,11.219 4.677,6.132 15.674,6.92 20.871,1.496 5.008,-5.228 6.908,-21.226 4.11,-34.613 -2.044,-9.78 -5.065,-12.5 -13.883,-12.5 -4.846,0 -6.954,0.476 -8.906,2.011 m 191.006,-0.292 c -1.53,0.979 -3.778,3.806 -4.996,6.281 -1.952,3.968 -2.207,6.038 -2.16,17.5 0.047,11.391 0.327,13.524 2.258,17.235 2.832,5.442 6.214,7.605 12.027,7.694 6.325,0.097 10.695,-1.958 13.393,-6.297 1.968,-3.163 2.304,-5.25 2.604,-16.172 0.394,-14.302 -0.647,-19.587 -4.762,-24.193 -2.515,-2.815 -3.507,-3.192 -9.201,-3.493 -4.842,-0.255 -7.053,0.093 -9.163,1.445"
             stroke="none"
             fill="#345cac"
             fill-rule="evenodd"
             id="path7"
             style="display:inline"
             sodipodi:nodetypes="cccsccccsccscsccccccccccccscccccccsccccccccssscscccscssssccccccccccccccccccccscccsccccccccccccccccsccsscscccccccccccsscssccccscsscccsssccccccccccssscccsccsccccccccccccscccccccsssccsssccssccsscscccsscsscccsssccscc"
             inkscape:label="d'Adoption" />
        </g>
        <text
           xml:space="preserve"
           style="font-size:400.001px;text-align:start;writing-mode:lr-tb;direction:ltr;text-anchor:start;display:inline;fill:#345cac;fill-opacity:1;stroke-width:33.3334"
           x="1542.175"
           y="2461.0042"
           id="text2"
           inkscape:label="44"><tspan
             sodipodi:role="line"
             id="tspan2"
             x="1542.175"
             y="2461.0042"
             style="font-style:normal;font-variant:normal;font-weight:normal;font-stretch:normal;font-family:'DIN Alternate';-inkscape-font-specification:'DIN Alternate';fill:#345cac;fill-opacity:1;stroke-width:33.3334">44</tspan></text>
      </g>
      <g
         id="g6"
         style="display:none"
         transform="matrix(0.87279453,0,0,0.87279453,-282.13551,277.94395)"
         sodipodi:insensitive="true">
        <text
           xml:space="preserve"
           style="font-size:400.001px;line-height:0.8;text-align:start;writing-mode:lr-tb;direction:ltr;text-anchor:start;display:inline;fill:#345cac;fill-opacity:1;stroke-width:33.3334"
           x="1550.175"
           y="2469.7664"
           id="text1"
           inkscape:label="Loire Atlantique"><tspan
             sodipodi:role="line"
             id="tspan1"
             x="1550.175"
             y="2469.7664"
             style="font-style:normal;font-variant:normal;font-weight:bold;font-stretch:normal;line-height:0.8;font-family:'DIN Alternate';-inkscape-font-specification:'DIN Alternate Bold';fill:#345cac;fill-opacity:1;stroke-width:33.3334">Loire</tspan><tspan
             sodipodi:role="line"
             x="1550.175"
             y="2790.887"
             style="font-style:normal;font-variant:normal;font-weight:bold;font-stretch:normal;line-height:0.8;font-family:'DIN Alternate';-inkscape-font-specification:'DIN Alternate Bold';fill:#345cac;fill-opacity:1;stroke-width:33.3334"
             id="tspan3">Atlantique</tspan></text>
        <text
           xml:space="preserve"
           style="font-style:normal;font-variant:normal;font-weight:normal;font-stretch:normal;font-size:261.489px;line-height:0.8;font-family:'DIN Alternate';-inkscape-font-specification:'DIN Alternate';text-align:start;writing-mode:lr-tb;direction:ltr;text-anchor:start;fill:#345cac;stroke-width:21.7909"
           x="1519.035"
           y="2372.6912"
           id="text4"
           inkscape:label="Enfance &amp; Familles d'Adoption"><tspan
             sodipodi:role="line"
             id="tspan4"
             x="1519.035"
             y="2372.6912"
             style="text-align:end;text-anchor:end;stroke-width:21.7909">Enfance &amp;</tspan><tspan
             sodipodi:role="line"
             x="1519.035"
             y="2581.8823"
             style="text-align:end;text-anchor:end;stroke-width:21.7909"
             id="tspan5">Familles</tspan><tspan
             sodipodi:role="line"
             x="1519.035"
             y="2791.0735"
             style="text-align:end;text-anchor:end;stroke-width:21.7909"
             id="tspan6">d´Adoption</tspan></text>
      </g>
      <g
         id="g15"
         style="display:none"
         sodipodi:insensitive="true">
        <g
           id="g12"
           inkscape:label="Enfance &amp;"
           transform="translate(726.746)">
          <path
             d="m 258.326,2186.044 c -12.773,2.526 -19.265,11.676 -19.304,27.206 L 239,2222 h -4.5 -4.5 v 8.5 8.5 h 4.5 4.5 v 35 35 h 11 11 v -35 -35 h 8.5 8.5 v -8.5 -8.5 h -8.613 -8.613 l 0.396,-6.997 c 0.509,-9.008 1.715,-10.274 10.318,-10.821 l 6.512,-0.415 v -9.383 -9.384 l -7.75,0.11 c -4.262,0.06 -9.628,0.48 -11.924,0.934 M 42,2248 v 61 H 82.5 123 V 2298.5 2288 H 94.5 66 v -15 -15 h 24 24 V 2247.5 2237 H 90 66 V 2222.5 2208 H 94.5 123 V 2197.5 2187 H 82.5 42 v 61 m 138.461,-28.909 c -5.07,0.643 -9.626,2.536 -14.711,6.111 l -2.75,1.934 v -4.102 -4.102 l -10.75,0.284 -10.75,0.284 -0.26,44.75 -0.261,44.75 h 10.956 10.955 l 0.305,-29.75 c 0.337,-32.881 0.497,-33.785 6.703,-37.963 4.455,-2.999 12.225,-3.119 16.912,-0.261 5.86,3.572 6.19,5.623 6.19,38.442 V 2309 h 11 11 l -0.033,-33.25 c -0.028,-28.883 -0.26,-33.908 -1.764,-38.258 -4.58,-13.244 -17.249,-20.364 -32.742,-18.401 m 132.114,0.063 c -8.951,0.884 -16.455,4.024 -21.033,8.802 -1.593,1.663 -2.692,3.14 -2.443,3.284 0.249,0.143 3.415,3.108 7.035,6.59 l 6.581,6.33 4.631,-3.264 c 4.278,-3.016 5.229,-3.264 12.484,-3.264 12.302,0 16.95,3.942 17.114,14.515 l 0.056,3.647 -16.25,0.435 c -17.813,0.475 -20.787,1.23 -27.272,6.924 -5.963,5.236 -7.96,10.103 -7.938,19.347 0.017,6.967 0.403,8.7 2.99,13.423 5.265,9.613 12.813,13.366 26.97,13.412 8.21,0.027 15.479,-2.196 19.713,-6.028 1.685,-1.525 1.787,-1.408 1.787,2.038 V 2309 h 11 11 v -32.318 c 0,-35.492 -0.425,-38.827 -5.911,-46.401 -1.907,-2.633 -5.062,-5.111 -9.031,-7.094 -5.513,-2.755 -8.259,-3.36 -20.558,-4.53 -1.65,-0.157 -6.566,0.067 -10.925,0.497 M 419,2219.087 c -5.891,0.944 -9.767,2.498 -13.685,5.486 l -3.194,2.436 -0.31,-3.754 -0.311,-3.755 -10.75,-0.284 -10.75,-0.284 v 45.034 45.034 h 11 11 v -29.184 c 0,-27.036 0.146,-29.485 1.979,-33.272 2.564,-5.296 6.443,-7.544 13.021,-7.544 6.062,0 9.936,1.961 12.614,6.386 1.718,2.836 1.913,5.814 2.19,33.364 l 0.304,30.25 h 10.995 10.995 l -0.299,-34.25 c -0.293,-33.546 -0.348,-34.358 -2.662,-39.477 -5.404,-11.953 -18.233,-18.414 -32.137,-16.186 m 84.725,0.15 c -12.114,1.358 -23.333,9.094 -28.268,19.494 -6.251,13.174 -6.788,33.291 -1.281,48.01 2.446,6.536 10.548,15.578 16.795,18.744 6.429,3.258 15.98,4.823 24.319,3.986 7.52,-0.755 18.541,-5.534 22.512,-9.76 l 2.214,-2.357 -7.5,-7.273 -7.5,-7.272 -3.053,2.569 c -8.704,7.323 -20.959,5.175 -26.173,-4.589 -2.036,-3.813 -2.29,-5.676 -2.29,-16.789 0,-11.798 0.153,-12.76 2.716,-17.12 3.568,-6.069 8.049,-8.246 15.82,-7.684 4.373,0.317 6.663,1.099 9.465,3.237 l 3.697,2.82 7.382,-7.332 7.382,-7.333 -2.196,-2.337 c -1.208,-1.285 -5.014,-3.725 -8.46,-5.421 -7.245,-3.567 -15.484,-4.724 -25.581,-3.593 m 78.611,-0.075 c -11.572,1.31 -22.03,8.437 -27.173,18.519 -8.93,17.505 -7.401,45.591 3.19,58.585 13.471,16.525 45.216,18.218 62.209,3.318 l 3.938,-3.453 -6.643,-6.699 -6.642,-6.699 -3.858,3.01 c -6.527,5.093 -14.949,6.609 -23.509,4.232 -6.121,-1.701 -12.812,-10.935 -12.842,-17.725 -0.005,-0.97 6.258,-1.25 27.994,-1.25 h 28 v -9.411 c 0,-14.766 -4.388,-26.189 -13.072,-34.035 -7.723,-6.978 -18.59,-9.864 -31.592,-8.392 M 582,2238.066 c -5.612,2.354 -8.529,6.6 -10.429,15.184 l -0.609,2.75 H 587.981 605 v -2.788 c 0,-3.805 -3.911,-11.166 -7.209,-13.568 -3.139,-2.286 -11.992,-3.171 -15.791,-1.578 m -268.705,34.041 c -4.185,1.21 -6.303,4.377 -6.263,9.366 0.055,6.995 3.915,9.769 13.514,9.714 10.922,-0.063 15.25,-3.847 16.184,-14.151 l 0.548,-6.036 -10.389,0.09 c -5.714,0.05 -11.831,0.507 -13.594,1.017"
             stroke="none"
             fill="#345cac"
             fill-rule="evenodd"
             id="path11"
             style="display:inline"
             sodipodi:nodetypes="csccccccccccccccccccccccccccccccccccccccccccccccccccccccccccccccsscscccccccscsccscccsssssscccsscsccscccccccccscscscccscccscssccccsssscccccccccscscccsccscssccscccsscccscccc" />
          <path
             d="m 707.205,2187.894 c -7.118,2.459 -12.125,6.716 -15.538,13.214 -2.562,4.876 -2.798,6.157 -2.465,13.392 0.403,8.766 2.304,13.845 7.99,21.336 l 3.291,4.337 -2.992,2.091 c -5.179,3.62 -13.27,12.385 -15.598,16.897 -3.008,5.83 -3.756,18.36 -1.549,25.95 3.301,11.356 11.16,19.203 22.636,22.602 3.471,1.028 9.418,1.661 16.02,1.705 12.303,0.083 17.916,-1.49 26.323,-7.379 l 5.517,-3.865 4.319,5.413 4.32,5.413 h 14.447 14.448 l -2.52,-2.75 c -1.387,-1.512 -6.445,-7.361 -11.24,-12.998 l -8.719,-10.247 2.512,-3.295 C 773.591,2272.915 779,2256.487 779,2247.542 V 2245 h -10.364 -10.364 l -0.645,4.75 c -0.829,6.102 -3.375,13.796 -5.015,15.157 -0.975,0.809 -3.684,-1.769 -11.392,-10.842 l -10.113,-11.903 7.435,-5.596 c 9.706,-7.305 13.435,-13.444 13.449,-22.138 0.019,-12.619 -6.341,-22.17 -17.558,-26.367 -7.178,-2.686 -19.713,-2.762 -27.228,-0.167 m 6.718,20.029 c -4.935,4.935 -3.754,9.982 4.664,19.941 0.624,0.739 7.408,-4.07 9.871,-6.996 5.751,-6.835 1.668,-15.868 -7.171,-15.868 -3.575,0 -5.011,0.57 -7.364,2.923 m -6.96,50.829 c -7.601,7.6 -8.765,15.597 -3.398,23.341 5.223,7.538 17.294,9.546 27.2,4.526 2.802,-1.42 5.343,-2.984 5.647,-3.477 0.527,-0.853 -22.875,-29.142 -24.108,-29.142 -0.324,0 -2.728,2.138 -5.341,4.752"
             stroke="none"
             fill="#345cac"
             fill-rule="evenodd"
             id="path12"
             style="display:inline"
             sodipodi:nodetypes="cccccsscscscccccccccscccssccscsccccscccscsc"
             inkscape:label="&amp;" />
        </g>
        <g
           id="g14"
           inkscape:label="Familles d'Adoption"
           transform="translate(-798,152)">
          <path
             d="m 1178.942,2180.938 c -5.109,1.571 -7.168,3.319 -9.128,7.75 -2.31,5.221 -1.888,9.677 1.301,13.731 6.07,7.717 18.011,7.343 22.925,-0.718 2.402,-3.938 2.555,-10.885 0.324,-14.661 -2.863,-4.848 -10.139,-7.727 -15.422,-6.102 M 840,2248 v 61 h 11.483 11.482 l 0.268,-24.75 0.267,-24.75 24.25,-0.268 24.25,-0.268 V 2248.482 2238 H 887.5 863 v -15 -15 h 28.5 28.5 v -10.5 -10.5 h -40 -40 v 61 m 374.006,-10.75 c 0,31.531 0.391,51.638 1.04,53.975 1.47,5.295 6.808,11.866 11.947,14.708 3.687,2.039 6.152,2.506 15.204,2.879 l 10.803,0.445 v -9.629 -9.628 h -5.889 c -4.123,0 -6.534,-0.525 -8.04,-1.75 -2.149,-1.749 -2.15,-1.768 -2.094,-51.5 l 0.055,-49.75 H 1225.516 1214 l 0.01,50.25 m 52.888,-1.5 c -0.058,26.813 -0.032,50.1 0.058,51.75 0.254,4.643 4.837,13.237 8.581,16.093 4.835,3.688 11.552,5.407 21.126,5.407 H 1305 v -9.5 -9.5 h -6 c -10.744,0 -10,3.982 -10,-53.5 V 2187 h -11 -11 l -0.106,48.75 m -309.73,-16.623 c -7.982,0.743 -17.955,4.893 -21.931,9.125 l -2.196,2.338 6.922,6.869 6.922,6.869 3.486,-2.659 c 4.857,-3.704 11.969,-5.078 19.29,-3.725 8.072,1.493 10.579,4.172 11.138,11.904 l 0.43,5.938 -15.863,0.393 c -17.312,0.429 -21.254,1.455 -28.227,7.349 -8.987,7.595 -10.032,26.277 -2.031,36.306 8.218,10.302 30.473,13.078 41.655,5.196 2.365,-1.666 4.511,-3.03 4.77,-3.03 0.259,0 0.471,1.575 0.471,3.5 v 3.5 h 10.5 10.5 v -33.322 c 0,-37.102 -0.288,-39.149 -6.527,-46.438 -7.013,-8.194 -21.076,-11.811 -39.309,-10.113 m 110.262,-0.514 c -0.509,0.126 -3.01,0.51 -5.557,0.852 -2.559,0.344 -7.144,2.135 -10.25,4.005 l -5.619,3.384 v -3.961 -3.961 l -10.75,0.284 -10.75,0.284 -0.26,44.75 -0.261,44.75 h 10.944 10.943 l 0.317,-29.75 c 0.35,-32.877 0.511,-33.787 6.715,-37.963 4.455,-2.999 12.225,-3.119 16.912,-0.261 5.86,3.572 6.19,5.623 6.19,38.442 V 2309 h 10.933 10.933 l 0.317,-29.75 c 0.35,-32.877 0.511,-33.787 6.715,-37.963 2.391,-1.61 4.85,-2.287 8.3,-2.287 6.022,0 10.273,2.085 12.842,6.299 1.823,2.988 1.953,5.213 1.956,33.451 V 2309 h 11.583 11.583 l -0.376,-32.75 c -0.362,-31.57 -0.46,-32.964 -2.726,-38.691 -4.963,-12.543 -14.987,-18.82 -29.886,-18.713 -9.016,0.065 -14.572,1.812 -21.43,6.74 l -4.982,3.579 -3.133,-2.97 c -1.723,-1.634 -4.667,-3.745 -6.542,-4.691 -3.141,-1.584 -12.499,-3.43 -14.665,-2.891 m 281.074,0.547 c -18.394,2.134 -29.563,14.846 -32.512,37.001 -2.048,15.391 1.299,31.436 8.365,40.105 13.471,16.525 45.216,18.218 62.209,3.318 l 3.938,-3.453 -6.528,-6.584 -6.528,-6.584 -3.972,2.87 c -6.977,5.043 -15.194,6.483 -23.624,4.142 -6.121,-1.701 -12.812,-10.935 -12.842,-17.725 -0.01,-0.97 6.258,-1.25 27.994,-1.25 h 28 l -0.012,-9.25 c -0.013,-10.262 -1.414,-16.744 -5.248,-24.29 -3.073,-6.047 -10.248,-12.913 -16.289,-15.585 -5.583,-2.469 -15.23,-3.611 -22.951,-2.715 m 85.97,-0.023 c -12.192,1.402 -23.389,9.186 -26.536,18.447 -1.696,4.988 -1.708,13.808 -0.027,18.752 3.373,9.919 10.929,14.011 29.683,16.078 14.633,1.613 17.72,3.091 18.207,8.717 0.871,10.049 -18.228,13.077 -33.577,5.323 l -6.72,-3.396 -7,7.027 -7,7.027 3,2.536 c 6.318,5.339 14.771,8.446 26.102,9.592 18.16,1.836 31.719,-1.561 40.241,-10.083 9.519,-9.519 9.393,-27.419 -0.259,-36.711 -5.067,-4.879 -11.279,-7.012 -24.584,-8.44 -13.07,-1.404 -14.777,-1.85 -16.499,-4.308 -2.263,-3.23 -1.841,-7.031 1.085,-9.774 2.37,-2.222 3.392,-2.423 12.25,-2.413 8.556,0.01 10.197,0.31 14.315,2.624 l 4.652,2.614 6.848,-6.932 c 6.646,-6.727 6.79,-6.978 4.849,-8.484 -8.372,-6.496 -24.452,-9.873 -39.03,-8.196 m -262.768,0.498 c -0.384,0.384 -0.698,20.648 -0.698,45.032 V 2309 h 11.51 11.511 l -0.261,-44.75 -0.26,-44.75 -10.552,-0.282 c -5.803,-0.155 -10.865,0.033 -11.25,0.417 m 175.802,18.721 c -4.515,2.09 -7.654,6.043 -9.027,11.365 -0.678,2.629 -1.035,5.117 -0.794,5.529 0.242,0.412 7.896,0.75 17.01,0.75 h 16.571 l -0.52,-4.614 c -0.554,-4.913 -2.714,-8.531 -7.01,-11.738 -3.357,-2.506 -12.103,-3.202 -16.23,-1.292 m -389,33.494 c -5.092,1.655 -7.5,4.918 -7.5,10.161 0,4.29 4.677,8.942 9.173,9.123 15.821,0.639 20.827,-2.991 20.827,-15.102 V 2271 l -10.25,0.1 c -5.638,0.055 -11.15,0.392 -12.25,0.75"
             stroke="none"
             fill="#345cac"
             fill-rule="evenodd"
             id="path13"
             style="display:inline"
             sodipodi:nodetypes="ccscccccccccccccccccccccccccssscccsccccccccsscccsscccccscccscccscccsscccssccsccccccccccsscscccssscccccsssccccccccsccccccscscscccsscccccccsccsssscssccscccccsccscscssccscscsc"
             inkscape:label="Familles" />
          <path
             d="m 2112.751,2180.708 c -4.056,0.627 -9.451,6.178 -10.276,10.573 -0.954,5.086 0.016,8.193 3.868,12.397 2.732,2.98 4.107,3.651 8.219,4.006 6.216,0.537 11.059,-1.837 13.603,-6.668 5.706,-10.837 -2.946,-22.236 -15.414,-20.308 M 1579,2207.051 v 20.051 l -3.304,-2.52 c -5.446,-4.154 -10.249,-5.651 -18.266,-5.693 -10.253,-0.053 -16.653,2.234 -22.399,8.005 -7.253,7.286 -8.531,12.917 -8.531,37.606 0,23.633 1.123,28.966 7.573,35.964 9.731,10.556 29.302,12.476 40.449,3.967 l 4.478,-3.418 v 3.994 3.993 h 11 11 v -61 -61 h -11 -11 v 20.051 m 43,-0.929 c 0,15.146 0.26,18.922 1.25,18.158 0.688,-0.53 5.862,-4.427 11.5,-8.659 l 10.25,-7.694 V 2197.463 2187 h -11.5 -11.5 v 19.122 m 75.887,-16.372 c -4.309,11.149 -42.887,117.621 -42.887,118.367 0,0.556 4.979,0.829 12.119,0.664 l 12.119,-0.281 3.671,-10.5 3.67,-10.5 h 21.894 21.893 l 3.533,10.75 3.533,10.75 h 12.391 c 9.491,0 12.284,-0.293 11.932,-1.25 -0.253,-0.687 -10.267,-28.137 -22.255,-61 L 1717.704,2187 h -9.377 c -9.305,0 -9.385,0.021 -10.44,2.75 M 1821,2206.622 v 19.622 l -2.25,-1.617 c -4.745,-3.411 -7.884,-4.672 -13.469,-5.414 -18.339,-2.435 -31.218,5.57 -35.053,21.787 -2.995,12.664 -2.232,40.881 1.391,51.433 3.758,10.946 14.029,16.986 28.881,16.984 8.381,-10e-4 11.519,-1.048 18.25,-6.086 l 3.25,-2.433 v 4.051 4.051 h 11 11 v -61 -61 h -11.5 -11.5 v 19.622 m 229,2.378 v 13 h -4.5 -4.5 v 8.5 8.5 h 4.439 4.44 l 0.31,26.25 c 0.292,24.668 0.441,26.491 2.469,30.25 5.026,9.314 11.135,12.552 25.018,13.26 l 10.324,0.527 v -9.643 -9.644 h -5.545 c -4.555,0 -5.985,-0.439 -8,-2.455 L 2072,2285.091 V 2262.045 2239 h 8 8 v -8.5 -8.5 h -8 -8 v -13 -13 h -11 -11 v 13 m -157.267,10.066 c -12.111,1.414 -22.917,9.304 -27.771,20.278 -2.981,6.74 -4.369,22.613 -3.052,34.906 1.35,12.594 4.892,20.649 11.726,26.664 7.058,6.213 13.868,8.428 26.011,8.461 9.693,0.026 10.484,-0.137 17.545,-3.627 10.297,-5.089 16.201,-12.847 18.681,-24.547 1.432,-6.759 1.451,-26.06 0.032,-33.736 -3.68,-19.908 -20.596,-31.035 -43.172,-28.399 m 100.544,0.022 c -5.045,0.663 -13.334,4.633 -14.979,7.174 -0.502,0.774 -0.989,-0.261 -1.302,-2.762 l -0.5,-4 h -10.5 -10.5 l -0.258,61.25 -0.257,61.25 h 11.007 11.008 v -20 c 0,-11 0.229,-20 0.509,-20 0.279,0 2.337,1.325 4.573,2.944 7.676,5.561 20.684,6.363 31.026,1.914 5.323,-2.29 11.311,-8.223 13.439,-13.316 3.186,-7.625 4.398,-31.559 2.404,-47.463 -1.648,-13.138 -5.881,-19.788 -15.342,-24.101 -6.798,-3.098 -12.535,-3.914 -20.328,-2.89 m 183.047,0.082 c -12.671,1.42 -23.942,9.999 -28.412,21.628 -2.652,6.898 -3.818,29.041 -2.032,38.596 3.232,17.298 15.013,28.388 31.962,30.09 17.912,1.799 32.206,-5.619 38.868,-20.171 5.258,-11.484 5.393,-38.5 0.252,-50.124 -6.554,-14.814 -21.475,-22.165 -40.638,-20.019 M 2278,2219.047 c -5.942,1.005 -9.799,2.562 -13.679,5.522 -1.753,1.337 -3.443,2.431 -3.754,2.431 -0.312,0 -0.567,-1.8 -0.567,-4 v -4 h -10.5 -10.5 v 45 45 h 10.947 10.946 l 0.304,-30.75 c 0.266,-26.982 0.511,-31.043 1.998,-33.144 3.052,-4.311 6.869,-6.092 13.07,-6.099 5.116,-0.01 6.163,0.359 9.303,3.243 2.24,2.058 3.876,4.717 4.461,7.25 0.508,2.2 0.934,16.488 0.947,31.75 L 2291,2309 h 11.06 11.06 l -0.31,-34.25 c -0.293,-32.357 -0.426,-34.502 -2.416,-38.801 -2.733,-5.908 -7.772,-11.591 -12.346,-13.924 -3.213,-1.64 -5.631,-2.253 -13.548,-3.44 -1.1,-0.165 -4.025,0.043 -6.5,0.462 M 2105,2264 v 45 h 11 11 v -45 -45 h -11 -11 v 45 m -403.861,-19.3 c -3.938,11.44 -7.156,21.138 -7.15,21.55 0.01,0.412 6.75,0.75 14.986,0.75 h 14.976 l -7.094,-20.75 c -3.902,-11.412 -7.423,-21.11 -7.825,-21.55 -0.403,-0.44 -3.954,8.56 -7.893,20 m -146.996,-3.167 c -4.537,3.817 -5.621,8.255 -5.614,22.967 0.01,14.426 1.339,18.947 6.746,22.9 3.64,2.66 12.27,2.783 16.167,0.23 5.096,-3.339 6.908,-9.537 6.908,-23.63 0,-19.469 -3.479,-25 -15.724,-25 -4.397,0 -6.064,0.498 -8.483,2.533 m 244.369,-1.32 c -5.991,3.473 -7.975,11.081 -7.284,27.93 0.401,9.786 0.834,12.221 2.714,15.263 2.92,4.724 5.367,5.927 12.058,5.927 6.719,0 9.137,-1.201 12.113,-6.016 1.968,-3.183 2.352,-5.398 2.718,-15.651 0.55,-15.437 -0.733,-21.495 -5.426,-25.615 -3.02,-2.652 -4.222,-3.047 -9.19,-3.021 -3.143,0.017 -6.609,0.549 -7.703,1.183 m 92.787,0.747 c -5.855,3.569 -6.799,6.768 -6.799,23.04 0,15.93 0.88,18.966 6.775,23.36 3.824,2.85 12.576,2.871 16.45,0.04 5.487,-4.011 6.76,-8.431 6.742,-23.4 -0.018,-15.268 -1.35,-19.738 -6.887,-23.114 -4.151,-2.532 -12.068,-2.496 -16.281,0.074 m 92.414,0.051 c -5.161,4.06 -7.608,17.864 -5.74,32.387 0.753,5.855 1.67,8.757 3.548,11.219 4.677,6.132 15.674,6.92 20.871,1.496 5.008,-5.228 6.908,-21.226 4.11,-34.613 -2.044,-9.78 -5.065,-12.5 -13.883,-12.5 -4.846,0 -6.954,0.476 -8.906,2.011 m 191.006,-0.292 c -1.53,0.979 -3.778,3.806 -4.996,6.281 -1.952,3.968 -2.207,6.038 -2.16,17.5 0.047,11.391 0.327,13.524 2.258,17.235 2.832,5.442 6.214,7.605 12.027,7.694 6.325,0.097 10.695,-1.958 13.393,-6.297 1.968,-3.163 2.304,-5.25 2.604,-16.172 0.394,-14.302 -0.647,-19.587 -4.762,-24.193 -2.515,-2.815 -3.507,-3.192 -9.201,-3.493 -4.842,-0.255 -7.053,0.093 -9.163,1.445"
             stroke="none"
             fill="#345cac"
             fill-rule="evenodd"
             id="path14"
             style="display:inline"
             sodipodi:nodetypes="cccsccccsccscsccccccccccccscccccccsccccccccssscscccscssssccccccccccccccccccccscccsccccccccccccccccsccsscscccccccccccsscssccccscsscccsssccccccccccssscccsccsccccccccccccscccccccsssccsssccssccsscscccsscsscccsssccscc"
             inkscape:label="d'Adoption" />
        </g>
        <text
           xml:space="preserve"
           style="font-size:800px;text-align:start;writing-mode:lr-tb;direction:ltr;text-anchor:start;display:inline;fill:#345cac;fill-opacity:1;stroke-width:33.3334"
           x="1542.175"
           y="2754.5312"
           id="text14"
           inkscape:label="44"><tspan
             sodipodi:role="line"
             id="tspan14"
             x="1542.175"
             y="2754.5312"
             style="font-style:normal;font-variant:normal;font-weight:normal;font-stretch:normal;font-size:800px;font-family:'DIN Alternate';-inkscape-font-specification:'DIN Alternate';fill:#345cac;fill-opacity:1;stroke-width:33.3334">44</tspan></text>
      </g>
      <g
         id="g19"
         style="display:none"
         transform="matrix(0.87279453,0,0,0.87279453,-282.13551,277.94395)"
         sodipodi:insensitive="true">
        <text
           xml:space="preserve"
           style="font-size:400.001px;line-height:0.8;text-align:start;writing-mode:lr-tb;direction:ltr;text-anchor:start;display:inline;fill:#345cac;fill-opacity:1;stroke-width:33.3334"
           x="1550.175"
           y="2469.7664"
           id="text16"
           inkscape:label="Loire Atlantique"><tspan
             sodipodi:role="line"
             id="tspan15"
             x="1550.175"
             y="2469.7664"
             style="font-style:normal;font-variant:normal;font-weight:bold;font-stretch:normal;line-height:0.8;font-family:'DIN Alternate';-inkscape-font-specification:'DIN Alternate Bold';fill:#345cac;fill-opacity:1;stroke-width:33.3334">Loire</tspan><tspan
             sodipodi:role="line"
             x="1550.175"
             y="2790.887"
             style="font-style:normal;font-variant:normal;font-weight:bold;font-stretch:normal;line-height:0.8;font-family:'DIN Alternate';-inkscape-font-specification:'DIN Alternate Bold';fill:#345cac;fill-opacity:1;stroke-width:33.3334"
             id="tspan16">Atlantique</tspan></text>
        <text
           xml:space="preserve"
           style="font-style:normal;font-variant:normal;font-weight:normal;font-stretch:normal;font-size:190.123px;line-height:0.8;font-family:'DIN Alternate';-inkscape-font-specification:'DIN Alternate';text-align:start;writing-mode:lr-tb;direction:ltr;text-anchor:start;fill:#345cac;stroke-width:15.8437"
           x="1519.1047"
           y="2321.4668"
           id="text19"
           inkscape:label="Enfance &amp; Familles d'Adoption"><tspan
             sodipodi:role="line"
             id="tspan17"
             x="1519.1047"
             y="2321.4668"
             style="font-style:normal;font-variant:normal;font-weight:bold;font-stretch:normal;font-family:'DIN Alternate';-inkscape-font-specification:'DIN Alternate Bold';text-align:end;text-anchor:end;stroke-width:15.8437">Enfance &amp;</tspan><tspan
             sodipodi:role="line"
             x="1519.1047"
             y="2473.5652"
             style="font-style:normal;font-variant:normal;font-weight:bold;font-stretch:normal;font-family:'DIN Alternate';-inkscape-font-specification:'DIN Alternate Bold';text-align:end;text-anchor:end;stroke-width:15.8437"
             id="tspan18">Familles</tspan><tspan
             sodipodi:role="line"
             x="1519.1047"
             y="2625.6636"
             style="font-style:normal;font-variant:normal;font-weight:bold;font-stretch:normal;font-family:'DIN Alternate';-inkscape-font-specification:'DIN Alternate Bold';text-align:end;text-anchor:end;stroke-width:15.8437"
             id="tspan19">d´Adoption</tspan></text>
      </g>
      <g
         id="g24"
         style="display:inline"
         transform="translate(-222.71572)">
        <g
           id="g25">
          <g
             id="g21"
             inkscape:label="Enfance &amp;"
             transform="translate(726.746)">
            <path
               d="m 258.326,2186.044 c -12.773,2.526 -19.265,11.676 -19.304,27.206 L 239,2222 h -4.5 -4.5 v 8.5 8.5 h 4.5 4.5 v 35 35 h 11 11 v -35 -35 h 8.5 8.5 v -8.5 -8.5 h -8.613 -8.613 l 0.396,-6.997 c 0.509,-9.008 1.715,-10.274 10.318,-10.821 l 6.512,-0.415 v -9.383 -9.384 l -7.75,0.11 c -4.262,0.06 -9.628,0.48 -11.924,0.934 M 42,2248 v 61 H 82.5 123 V 2298.5 2288 H 94.5 66 v -15 -15 h 24 24 V 2247.5 2237 H 90 66 V 2222.5 2208 H 94.5 123 V 2197.5 2187 H 82.5 42 v 61 m 138.461,-28.909 c -5.07,0.643 -9.626,2.536 -14.711,6.111 l -2.75,1.934 v -4.102 -4.102 l -10.75,0.284 -10.75,0.284 -0.26,44.75 -0.261,44.75 h 10.956 10.955 l 0.305,-29.75 c 0.337,-32.881 0.497,-33.785 6.703,-37.963 4.455,-2.999 12.225,-3.119 16.912,-0.261 5.86,3.572 6.19,5.623 6.19,38.442 V 2309 h 11 11 l -0.033,-33.25 c -0.028,-28.883 -0.26,-33.908 -1.764,-38.258 -4.58,-13.244 -17.249,-20.364 -32.742,-18.401 m 132.114,0.063 c -8.951,0.884 -16.455,4.024 -21.033,8.802 -1.593,1.663 -2.692,3.14 -2.443,3.284 0.249,0.143 3.415,3.108 7.035,6.59 l 6.581,6.33 4.631,-3.264 c 4.278,-3.016 5.229,-3.264 12.484,-3.264 12.302,0 16.95,3.942 17.114,14.515 l 0.056,3.647 -16.25,0.435 c -17.813,0.475 -20.787,1.23 -27.272,6.924 -5.963,5.236 -7.96,10.103 -7.938,19.347 0.017,6.967 0.403,8.7 2.99,13.423 5.265,9.613 12.813,13.366 26.97,13.412 8.21,0.027 15.479,-2.196 19.713,-6.028 1.685,-1.525 1.787,-1.408 1.787,2.038 V 2309 h 11 11 v -32.318 c 0,-35.492 -0.425,-38.827 -5.911,-46.401 -1.907,-2.633 -5.062,-5.111 -9.031,-7.094 -5.513,-2.755 -8.259,-3.36 -20.558,-4.53 -1.65,-0.157 -6.566,0.067 -10.925,0.497 M 419,2219.087 c -5.891,0.944 -9.767,2.498 -13.685,5.486 l -3.194,2.436 -0.31,-3.754 -0.311,-3.755 -10.75,-0.284 -10.75,-0.284 v 45.034 45.034 h 11 11 v -29.184 c 0,-27.036 0.146,-29.485 1.979,-33.272 2.564,-5.296 6.443,-7.544 13.021,-7.544 6.062,0 9.936,1.961 12.614,6.386 1.718,2.836 1.913,5.814 2.19,33.364 l 0.304,30.25 h 10.995 10.995 l -0.299,-34.25 c -0.293,-33.546 -0.348,-34.358 -2.662,-39.477 -5.404,-11.953 -18.233,-18.414 -32.137,-16.186 m 84.725,0.15 c -12.114,1.358 -23.333,9.094 -28.268,19.494 -6.251,13.174 -6.788,33.291 -1.281,48.01 2.446,6.536 10.548,15.578 16.795,18.744 6.429,3.258 15.98,4.823 24.319,3.986 7.52,-0.755 18.541,-5.534 22.512,-9.76 l 2.214,-2.357 -7.5,-7.273 -7.5,-7.272 -3.053,2.569 c -8.704,7.323 -20.959,5.175 -26.173,-4.589 -2.036,-3.813 -2.29,-5.676 -2.29,-16.789 0,-11.798 0.153,-12.76 2.716,-17.12 3.568,-6.069 8.049,-8.246 15.82,-7.684 4.373,0.317 6.663,1.099 9.465,3.237 l 3.697,2.82 7.382,-7.332 7.382,-7.333 -2.196,-2.337 c -1.208,-1.285 -5.014,-3.725 -8.46,-5.421 -7.245,-3.567 -15.484,-4.724 -25.581,-3.593 m 78.611,-0.075 c -11.572,1.31 -22.03,8.437 -27.173,18.519 -8.93,17.505 -7.401,45.591 3.19,58.585 13.471,16.525 45.216,18.218 62.209,3.318 l 3.938,-3.453 -6.643,-6.699 -6.642,-6.699 -3.858,3.01 c -6.527,5.093 -14.949,6.609 -23.509,4.232 -6.121,-1.701 -12.812,-10.935 -12.842,-17.725 -0.005,-0.97 6.258,-1.25 27.994,-1.25 h 28 v -9.411 c 0,-14.766 -4.388,-26.189 -13.072,-34.035 -7.723,-6.978 -18.59,-9.864 -31.592,-8.392 M 582,2238.066 c -5.612,2.354 -8.529,6.6 -10.429,15.184 l -0.609,2.75 H 587.981 605 v -2.788 c 0,-3.805 -3.911,-11.166 -7.209,-13.568 -3.139,-2.286 -11.992,-3.171 -15.791,-1.578 m -268.705,34.041 c -4.185,1.21 -6.303,4.377 -6.263,9.366 0.055,6.995 3.915,9.769 13.514,9.714 10.922,-0.063 15.25,-3.847 16.184,-14.151 l 0.548,-6.036 -10.389,0.09 c -5.714,0.05 -11.831,0.507 -13.594,1.017"
               stroke="none"
               fill="#345cac"
               fill-rule="evenodd"
               id="path20"
               style="display:inline"
               sodipodi:nodetypes="csccccccccccccccccccccccccccccccccccccccccccccccccccccccccccccccsscscccccccscsccscccsssssscccsscsccscccccccccscscscccscccscssccccsssscccccccccscscccsccscssccscccsscccscccc" />
            <path
               d="m 707.205,2187.894 c -7.118,2.459 -12.125,6.716 -15.538,13.214 -2.562,4.876 -2.798,6.157 -2.465,13.392 0.403,8.766 2.304,13.845 7.99,21.336 l 3.291,4.337 -2.992,2.091 c -5.179,3.62 -13.27,12.385 -15.598,16.897 -3.008,5.83 -3.756,18.36 -1.549,25.95 3.301,11.356 11.16,19.203 22.636,22.602 3.471,1.028 9.418,1.661 16.02,1.705 12.303,0.083 17.916,-1.49 26.323,-7.379 l 5.517,-3.865 4.319,5.413 4.32,5.413 h 14.447 14.448 l -2.52,-2.75 c -1.387,-1.512 -6.445,-7.361 -11.24,-12.998 l -8.719,-10.247 2.512,-3.295 C 773.591,2272.915 779,2256.487 779,2247.542 V 2245 h -10.364 -10.364 l -0.645,4.75 c -0.829,6.102 -3.375,13.796 -5.015,15.157 -0.975,0.809 -3.684,-1.769 -11.392,-10.842 l -10.113,-11.903 7.435,-5.596 c 9.706,-7.305 13.435,-13.444 13.449,-22.138 0.019,-12.619 -6.341,-22.17 -17.558,-26.367 -7.178,-2.686 -19.713,-2.762 -27.228,-0.167 m 6.718,20.029 c -4.935,4.935 -3.754,9.982 4.664,19.941 0.624,0.739 7.408,-4.07 9.871,-6.996 5.751,-6.835 1.668,-15.868 -7.171,-15.868 -3.575,0 -5.011,0.57 -7.364,2.923 m -6.96,50.829 c -7.601,7.6 -8.765,15.597 -3.398,23.341 5.223,7.538 17.294,9.546 27.2,4.526 2.802,-1.42 5.343,-2.984 5.647,-3.477 0.527,-0.853 -22.875,-29.142 -24.108,-29.142 -0.324,0 -2.728,2.138 -5.341,4.752"
               stroke="none"
               fill="#345cac"
               fill-rule="evenodd"
               id="path21"
               style="display:inline"
               sodipodi:nodetypes="cccccsscscscccccccccscccssccscsccccscccscsc"
               inkscape:label="&amp;" />
          </g>
          <g
             id="g23"
             inkscape:label="Familles d'Adoption"
             transform="translate(-798,152)">
            <path
               d="m 1178.942,2180.938 c -5.109,1.571 -7.168,3.319 -9.128,7.75 -2.31,5.221 -1.888,9.677 1.301,13.731 6.07,7.717 18.011,7.343 22.925,-0.718 2.402,-3.938 2.555,-10.885 0.324,-14.661 -2.863,-4.848 -10.139,-7.727 -15.422,-6.102 M 840,2248 v 61 h 11.483 11.482 l 0.268,-24.75 0.267,-24.75 24.25,-0.268 24.25,-0.268 V 2248.482 2238 H 887.5 863 v -15 -15 h 28.5 28.5 v -10.5 -10.5 h -40 -40 v 61 m 374.006,-10.75 c 0,31.531 0.391,51.638 1.04,53.975 1.47,5.295 6.808,11.866 11.947,14.708 3.687,2.039 6.152,2.506 15.204,2.879 l 10.803,0.445 v -9.629 -9.628 h -5.889 c -4.123,0 -6.534,-0.525 -8.04,-1.75 -2.149,-1.749 -2.15,-1.768 -2.094,-51.5 l 0.055,-49.75 H 1225.516 1214 l 0.01,50.25 m 52.888,-1.5 c -0.058,26.813 -0.032,50.1 0.058,51.75 0.254,4.643 4.837,13.237 8.581,16.093 4.835,3.688 11.552,5.407 21.126,5.407 H 1305 v -9.5 -9.5 h -6 c -10.744,0 -10,3.982 -10,-53.5 V 2187 h -11 -11 l -0.106,48.75 m -309.73,-16.623 c -7.982,0.743 -17.955,4.893 -21.931,9.125 l -2.196,2.338 6.922,6.869 6.922,6.869 3.486,-2.659 c 4.857,-3.704 11.969,-5.078 19.29,-3.725 8.072,1.493 10.579,4.172 11.138,11.904 l 0.43,5.938 -15.863,0.393 c -17.312,0.429 -21.254,1.455 -28.227,7.349 -8.987,7.595 -10.032,26.277 -2.031,36.306 8.218,10.302 30.473,13.078 41.655,5.196 2.365,-1.666 4.511,-3.03 4.77,-3.03 0.259,0 0.471,1.575 0.471,3.5 v 3.5 h 10.5 10.5 v -33.322 c 0,-37.102 -0.288,-39.149 -6.527,-46.438 -7.013,-8.194 -21.076,-11.811 -39.309,-10.113 m 110.262,-0.514 c -0.509,0.126 -3.01,0.51 -5.557,0.852 -2.559,0.344 -7.144,2.135 -10.25,4.005 l -5.619,3.384 v -3.961 -3.961 l -10.75,0.284 -10.75,0.284 -0.26,44.75 -0.261,44.75 h 10.944 10.943 l 0.317,-29.75 c 0.35,-32.877 0.511,-33.787 6.715,-37.963 4.455,-2.999 12.225,-3.119 16.912,-0.261 5.86,3.572 6.19,5.623 6.19,38.442 V 2309 h 10.933 10.933 l 0.317,-29.75 c 0.35,-32.877 0.511,-33.787 6.715,-37.963 2.391,-1.61 4.85,-2.287 8.3,-2.287 6.022,0 10.273,2.085 12.842,6.299 1.823,2.988 1.953,5.213 1.956,33.451 V 2309 h 11.583 11.583 l -0.376,-32.75 c -0.362,-31.57 -0.46,-32.964 -2.726,-38.691 -4.963,-12.543 -14.987,-18.82 -29.886,-18.713 -9.016,0.065 -14.572,1.812 -21.43,6.74 l -4.982,3.579 -3.133,-2.97 c -1.723,-1.634 -4.667,-3.745 -6.542,-4.691 -3.141,-1.584 -12.499,-3.43 -14.665,-2.891 m 281.074,0.547 c -18.394,2.134 -29.563,14.846 -32.512,37.001 -2.048,15.391 1.299,31.436 8.365,40.105 13.471,16.525 45.216,18.218 62.209,3.318 l 3.938,-3.453 -6.528,-6.584 -6.528,-6.584 -3.972,2.87 c -6.977,5.043 -15.194,6.483 -23.624,4.142 -6.121,-1.701 -12.812,-10.935 -12.842,-17.725 -0.01,-0.97 6.258,-1.25 27.994,-1.25 h 28 l -0.012,-9.25 c -0.013,-10.262 -1.414,-16.744 -5.248,-24.29 -3.073,-6.047 -10.248,-12.913 -16.289,-15.585 -5.583,-2.469 -15.23,-3.611 -22.951,-2.715 m 85.97,-0.023 c -12.192,1.402 -23.389,9.186 -26.536,18.447 -1.696,4.988 -1.708,13.808 -0.027,18.752 3.373,9.919 10.929,14.011 29.683,16.078 14.633,1.613 17.72,3.091 18.207,8.717 0.871,10.049 -18.228,13.077 -33.577,5.323 l -6.72,-3.396 -7,7.027 -7,7.027 3,2.536 c 6.318,5.339 14.771,8.446 26.102,9.592 18.16,1.836 31.719,-1.561 40.241,-10.083 9.519,-9.519 9.393,-27.419 -0.259,-36.711 -5.067,-4.879 -11.279,-7.012 -24.584,-8.44 -13.07,-1.404 -14.777,-1.85 -16.499,-4.308 -2.263,-3.23 -1.841,-7.031 1.085,-9.774 2.37,-2.222 3.392,-2.423 12.25,-2.413 8.556,0.01 10.197,0.31 14.315,2.624 l 4.652,2.614 6.848,-6.932 c 6.646,-6.727 6.79,-6.978 4.849,-8.484 -8.372,-6.496 -24.452,-9.873 -39.03,-8.196 m -262.768,0.498 c -0.384,0.384 -0.698,20.648 -0.698,45.032 V 2309 h 11.51 11.511 l -0.261,-44.75 -0.26,-44.75 -10.552,-0.282 c -5.803,-0.155 -10.865,0.033 -11.25,0.417 m 175.802,18.721 c -4.515,2.09 -7.654,6.043 -9.027,11.365 -0.678,2.629 -1.035,5.117 -0.794,5.529 0.242,0.412 7.896,0.75 17.01,0.75 h 16.571 l -0.52,-4.614 c -0.554,-4.913 -2.714,-8.531 -7.01,-11.738 -3.357,-2.506 -12.103,-3.202 -16.23,-1.292 m -389,33.494 c -5.092,1.655 -7.5,4.918 -7.5,10.161 0,4.29 4.677,8.942 9.173,9.123 15.821,0.639 20.827,-2.991 20.827,-15.102 V 2271 l -10.25,0.1 c -5.638,0.055 -11.15,0.392 -12.25,0.75"
               stroke="none"
               fill="#345cac"
               fill-rule="evenodd"
               id="path22"
               style="display:inline"
               sodipodi:nodetypes="ccscccccccccccccccccccccccccssscccsccccccccsscccsscccccscccscccscccsscccssccsccccccccccsscscccssscccccsssccccccccsccccccscscscccsscccccccsccsssscssccscccccsccscscssccscscsc"
               inkscape:label="Familles" />
            <path
               d="m 2112.751,2180.708 c -4.056,0.627 -9.451,6.178 -10.276,10.573 -0.954,5.086 0.016,8.193 3.868,12.397 2.732,2.98 4.107,3.651 8.219,4.006 6.216,0.537 11.059,-1.837 13.603,-6.668 5.706,-10.837 -2.946,-22.236 -15.414,-20.308 M 1579,2207.051 v 20.051 l -3.304,-2.52 c -5.446,-4.154 -10.249,-5.651 -18.266,-5.693 -10.253,-0.053 -16.653,2.234 -22.399,8.005 -7.253,7.286 -8.531,12.917 -8.531,37.606 0,23.633 1.123,28.966 7.573,35.964 9.731,10.556 29.302,12.476 40.449,3.967 l 4.478,-3.418 v 3.994 3.993 h 11 11 v -61 -61 h -11 -11 v 20.051 m 43,-0.929 c 0,15.146 0.26,18.922 1.25,18.158 0.688,-0.53 5.862,-4.427 11.5,-8.659 l 10.25,-7.694 V 2197.463 2187 h -11.5 -11.5 v 19.122 m 75.887,-16.372 c -4.309,11.149 -42.887,117.621 -42.887,118.367 0,0.556 4.979,0.829 12.119,0.664 l 12.119,-0.281 3.671,-10.5 3.67,-10.5 h 21.894 21.893 l 3.533,10.75 3.533,10.75 h 12.391 c 9.491,0 12.284,-0.293 11.932,-1.25 -0.253,-0.687 -10.267,-28.137 -22.255,-61 L 1717.704,2187 h -9.377 c -9.305,0 -9.385,0.021 -10.44,2.75 M 1821,2206.622 v 19.622 l -2.25,-1.617 c -4.745,-3.411 -7.884,-4.672 -13.469,-5.414 -18.339,-2.435 -31.218,5.57 -35.053,21.787 -2.995,12.664 -2.232,40.881 1.391,51.433 3.758,10.946 14.029,16.986 28.881,16.984 8.381,-10e-4 11.519,-1.048 18.25,-6.086 l 3.25,-2.433 v 4.051 4.051 h 11 11 v -61 -61 h -11.5 -11.5 v 19.622 m 229,2.378 v 13 h -4.5 -4.5 v 8.5 8.5 h 4.439 4.44 l 0.31,26.25 c 0.292,24.668 0.441,26.491 2.469,30.25 5.026,9.314 11.135,12.552 25.018,13.26 l 10.324,0.527 v -9.643 -9.644 h -5.545 c -4.555,0 -5.985,-0.439 -8,-2.455 L 2072,2285.091 V 2262.045 2239 h 8 8 v -8.5 -8.5 h -8 -8 v -13 -13 h -11 -11 v 13 m -157.267,10.066 c -12.111,1.414 -22.917,9.304 -27.771,20.278 -2.981,6.74 -4.369,22.613 -3.052,34.906 1.35,12.594 4.892,20.649 11.726,26.664 7.058,6.213 13.868,8.428 26.011,8.461 9.693,0.026 10.484,-0.137 17.545,-3.627 10.297,-5.089 16.201,-12.847 18.681,-24.547 1.432,-6.759 1.451,-26.06 0.032,-33.736 -3.68,-19.908 -20.596,-31.035 -43.172,-28.399 m 100.544,0.022 c -5.045,0.663 -13.334,4.633 -14.979,7.174 -0.502,0.774 -0.989,-0.261 -1.302,-2.762 l -0.5,-4 h -10.5 -10.5 l -0.258,61.25 -0.257,61.25 h 11.007 11.008 v -20 c 0,-11 0.229,-20 0.509,-20 0.279,0 2.337,1.325 4.573,2.944 7.676,5.561 20.684,6.363 31.026,1.914 5.323,-2.29 11.311,-8.223 13.439,-13.316 3.186,-7.625 4.398,-31.559 2.404,-47.463 -1.648,-13.138 -5.881,-19.788 -15.342,-24.101 -6.798,-3.098 -12.535,-3.914 -20.328,-2.89 m 183.047,0.082 c -12.671,1.42 -23.942,9.999 -28.412,21.628 -2.652,6.898 -3.818,29.041 -2.032,38.596 3.232,17.298 15.013,28.388 31.962,30.09 17.912,1.799 32.206,-5.619 38.868,-20.171 5.258,-11.484 5.393,-38.5 0.252,-50.124 -6.554,-14.814 -21.475,-22.165 -40.638,-20.019 M 2278,2219.047 c -5.942,1.005 -9.799,2.562 -13.679,5.522 -1.753,1.337 -3.443,2.431 -3.754,2.431 -0.312,0 -0.567,-1.8 -0.567,-4 v -4 h -10.5 -10.5 v 45 45 h 10.947 10.946 l 0.304,-30.75 c 0.266,-26.982 0.511,-31.043 1.998,-33.144 3.052,-4.311 6.869,-6.092 13.07,-6.099 5.116,-0.01 6.163,0.359 9.303,3.243 2.24,2.058 3.876,4.717 4.461,7.25 0.508,2.2 0.934,16.488 0.947,31.75 L 2291,2309 h 11.06 11.06 l -0.31,-34.25 c -0.293,-32.357 -0.426,-34.502 -2.416,-38.801 -2.733,-5.908 -7.772,-11.591 -12.346,-13.924 -3.213,-1.64 -5.631,-2.253 -13.548,-3.44 -1.1,-0.165 -4.025,0.043 -6.5,0.462 M 2105,2264 v 45 h 11 11 v -45 -45 h -11 -11 v 45 m -403.861,-19.3 c -3.938,11.44 -7.156,21.138 -7.15,21.55 0.01,0.412 6.75,0.75 14.986,0.75 h 14.976 l -7.094,-20.75 c -3.902,-11.412 -7.423,-21.11 -7.825,-21.55 -0.403,-0.44 -3.954,8.56 -7.893,20 m -146.996,-3.167 c -4.537,3.817 -5.621,8.255 -5.614,22.967 0.01,14.426 1.339,18.947 6.746,22.9 3.64,2.66 12.27,2.783 16.167,0.23 5.096,-3.339 6.908,-9.537 6.908,-23.63 0,-19.469 -3.479,-25 -15.724,-25 -4.397,0 -6.064,0.498 -8.483,2.533 m 244.369,-1.32 c -5.991,3.473 -7.975,11.081 -7.284,27.93 0.401,9.786 0.834,12.221 2.714,15.263 2.92,4.724 5.367,5.927 12.058,5.927 6.719,0 9.137,-1.201 12.113,-6.016 1.968,-3.183 2.352,-5.398 2.718,-15.651 0.55,-15.437 -0.733,-21.495 -5.426,-25.615 -3.02,-2.652 -4.222,-3.047 -9.19,-3.021 -3.143,0.017 -6.609,0.549 -7.703,1.183 m 92.787,0.747 c -5.855,3.569 -6.799,6.768 -6.799,23.04 0,15.93 0.88,18.966 6.775,23.36 3.824,2.85 12.576,2.871 16.45,0.04 5.487,-4.011 6.76,-8.431 6.742,-23.4 -0.018,-15.268 -1.35,-19.738 -6.887,-23.114 -4.151,-2.532 -12.068,-2.496 -16.281,0.074 m 92.414,0.051 c -5.161,4.06 -7.608,17.864 -5.74,32.387 0.753,5.855 1.67,8.757 3.548,11.219 4.677,6.132 15.674,6.92 20.871,1.496 5.008,-5.228 6.908,-21.226 4.11,-34.613 -2.044,-9.78 -5.065,-12.5 -13.883,-12.5 -4.846,0 -6.954,0.476 -8.906,2.011 m 191.006,-0.292 c -1.53,0.979 -3.778,3.806 -4.996,6.281 -1.952,3.968 -2.207,6.038 -2.16,17.5 0.047,11.391 0.327,13.524 2.258,17.235 2.832,5.442 6.214,7.605 12.027,7.694 6.325,0.097 10.695,-1.958 13.393,-6.297 1.968,-3.163 2.304,-5.25 2.604,-16.172 0.394,-14.302 -0.647,-19.587 -4.762,-24.193 -2.515,-2.815 -3.507,-3.192 -9.201,-3.493 -4.842,-0.255 -7.053,0.093 -9.163,1.445"
               stroke="none"
               fill="#345cac"
               fill-rule="evenodd"
               id="path23"
               style="display:inline"
               sodipodi:nodetypes="cccsccccsccscsccccccccccccscccccccsccccccccssscscccscssssccccccccccccccccccccscccsccccccccccccccccsccsscscccccccccccsscssccccscsscccsssccccccccccssscccsccsccccccccccccscccccccsssccsssccssccsscscccsscsscccsssccscc"
               inkscape:label="d'Adoption" />
          </g>
        </g>
        <text
           xml:space="preserve"
           style="font-size:387.662px;line-height:0.8;text-align:start;writing-mode:lr-tb;direction:ltr;text-anchor:start;display:inline;fill:#345cac;fill-opacity:1;stroke-width:32.3052"
           x="1514.7411"
           y="2460.9814"
           id="text16-1"
           inkscape:label="Loire Atlantique"><tspan
             sodipodi:role="line"
             id="tspan15-2"
             x="1514.7411"
             y="2460.9814"
             style="font-style:normal;font-variant:normal;font-weight:bold;font-stretch:normal;line-height:0.8;font-family:'DIN Alternate';-inkscape-font-specification:'DIN Alternate Bold';fill:#345cac;fill-opacity:1;stroke-width:32.3052">Loire</tspan><tspan
             sodipodi:role="line"
             x="1514.7411"
             y="2772.1963"
             style="font-style:normal;font-variant:normal;font-weight:bold;font-stretch:normal;line-height:0.8;font-family:'DIN Alternate';-inkscape-font-specification:'DIN Alternate Bold';fill:#345cac;fill-opacity:1;stroke-width:32.3052"
             id="tspan16-0">Atlantique</tspan></text>
      </g>
    </g>
    <g
       id="layer2"
       inkscape:label="EFA"
       style="display:inline"
       sodipodi:insensitive="true">
      <path
         d="m 339.5,1464.675 c -44.714,1.018 -81.822,6.382 -109.326,15.803 -19.548,6.696 -30.073,11.565 -46.974,21.735 C 99.957,1552.3 58.095,1624.794 45.315,1741 c -1.601,14.55 -1.814,25.893 -1.806,96 0.009,76.821 0.086,80.123 2.303,97.996 4.024,32.451 10.523,60.24 19.176,82.004 22.113,55.611 58.708,91.984 114.012,113.32 33.89,13.075 70.636,19.424 122.5,21.165 17.141,0.575 152.791,-0.656 232.25,-2.109 l 37.25,-0.68 v -51.702 -51.702 l -106.75,-0.718 c -151.804,-1.021 -170.466,-1.738 -199.708,-7.675 -11.038,-2.241 -28.346,-7.598 -37.25,-11.529 -43,-18.985 -67.005,-55.261 -72.28,-109.226 -0.557,-5.696 -1.012,-25.804 -1.012,-44.685 v -34.33 l 8.25,3.801 c 26.713,12.305 63.839,24.032 94.881,29.971 48.176,9.216 108.116,10.341 157.869,2.963 58.617,-8.693 103.595,-27.127 138.218,-56.647 45.628,-38.905 66.683,-96.133 60.783,-165.217 -4.37,-51.169 -19.377,-90.419 -46.284,-121.049 -29.664,-33.77 -74.824,-55.348 -132.717,-63.416 -21.691,-3.022 -50.485,-3.885 -95.5,-2.86 M 324,1567.054 c -72.419,7.855 -144.467,47.971 -163.993,91.309 -4.734,10.507 -5.007,13.788 -5.007,60.114 v 43.379 l 5.65,2.114 c 16.315,6.105 47.492,13.954 71.465,17.993 58.259,9.815 131.521,9.57 176.885,-0.594 46.223,-10.355 77.763,-31.264 90.533,-60.015 5.543,-12.478 7.67,-21.978 8.215,-36.686 0.829,-22.331 -2.66,-40.733 -10.814,-57.035 -5.287,-10.569 -9.408,-15.976 -19.28,-25.29 -18.797,-17.737 -46.345,-28.887 -83.654,-33.86 -14.648,-1.952 -57.17,-2.82 -70,-1.429"
         stroke="none"
         fill="#345cac"
         fill-rule="evenodd"
         id="e"
         style="display:inline"
         sodipodi:nodetypes="csccsccssccccsscsscccccsccccsscscccccccc" />
      <path
         d="m 982.616,949.098 c -4.335,0.457 -11.728,1.552 -16.428,2.432 -10.382,1.946 -43.454,11.337 -52.863,15.012 -34.665,13.539 -71.169,39.88 -97.425,70.301 -30.96,35.872 -48.119,76.069 -55.598,130.246 -1.592,11.53 -1.736,42.84 -2.023,441.326 -0.217,301.454 -0.625,429.297 -1.373,430.199 -0.796,0.958 -6.853,1.359 -23.96,1.584 -22.296,0.294 -22.954,0.362 -25.17,2.58 l -2.276,2.278 v 51.944 51.944 l 2.278,2.278 2.278,2.278 h 85.444 85.444 l 2.278,-2.278 2.278,-2.277 0.513,-253.223 c 0.484,-238.684 0.616,-253.566 2.288,-259.222 5.156,-17.436 10.005,-25.706 21.531,-36.716 11.861,-11.331 26.897,-18.365 48.122,-22.516 7.299,-1.428 18.789,-1.751 78.769,-2.22 l 70.223,-0.548 2.277,-2.278 2.277,-2.278 V 1518 1466.056 l -2.278,-2.278 -2.277,-2.278 -109.136,-0.263 c -78.101,-0.188 -109.516,-0.579 -110.472,-1.373 -1.106,-0.917 -1.332,-28.3 -1.311,-158.236 0.026,-155.478 0.449,-179.632 3.419,-195.054 3.564,-18.511 11.508,-37.747 21.191,-51.317 20.826,-29.185 61.168,-54.158 100.373,-62.134 28.964,-5.893 54.087,-6.179 84.567,-0.964 11.086,1.897 13.471,2.047 14.818,0.929 4.23,-3.51 0.601,-8.317 -12.894,-17.078 -31.663,-20.558 -76.205,-30.992 -114.884,-26.912"
         stroke="none"
         fill="#fbc32c"
         fill-rule="evenodd"
         id="f"
         style="display:inline"
         sodipodi:nodetypes="cccccsccscccccccccccccccccccccscccccsccc" />
      <path
         d="m 1465.5,1831.697 c -17.686,0.939 -45.76,4.872 -60,8.405 -54.142,13.436 -82.905,38.874 -90.008,79.603 -3.664,21.014 0.443,46.605 10.678,66.53 10.971,21.36 31.741,37.236 60.956,46.595 28.85,9.241 76.864,13.067 109.26,8.706 76.6,-10.312 146.868,-53.023 158.086,-96.088 2.277,-8.745 2.267,-83.947 -0.012,-87.201 -2.841,-4.057 -39.261,-14.193 -68.96,-19.192 -39.364,-6.627 -83.178,-9.313 -120,-7.358 m 75.989,-372.929 c -44.9929,0.128 -117.995,0.697 -117.995,0.697 -64.897,0.383 -131.145,0.998 -147.218,1.366 -28.648,0.656 -29.27,0.714 -31.5,2.947 l -2.276,2.278 v 52.56 52.561 l 2.17,1.757 c 2.034,1.647 10.031,1.801 127.5,2.449 68.932,0.38 131.405,1.148 138.83,1.706 26.0527,1.9556 67.9373,7.6924 97.1,28.057 27.963,19.992 43.145,47.356 48.355,87.155 2.029,15.501 2.211,62.901 0.248,64.531 -0.951,0.789 -5.154,0.018 -15.75,-2.89 -30.048,-8.245 -67.672,-15.29 -101.453,-18.996 -27.945,-3.065 -84.025,-3.857 -110.5,-1.56 -95.761,8.31 -164.119,41.63 -201.286,98.114 -22.703,34.501 -32.768,76.544 -29.779,124.384 1.78,28.481 5.027,46.297 12.561,68.92 13.284,39.89 36.437,70.244 70.504,92.431 27.521,17.924 61.372,29.352 105,35.447 16.007,2.237 74.134,2.563 89,0.5 56.043,-7.778 98.722,-22.318 139.008,-47.357 12.653,-7.865 33.548,-24.373 45.577,-36.01 5.011,-4.848 9.616,-8.815 10.233,-8.815 0.807,0 1.2,12.188 1.401,43.473 l 0.281,43.473 2.278,2.277 2.278,2.277 h 48.944 48.944 l 2.278,-2.278 2.278,-2.278 v -218.222 c 0,-226.268 6.4377,-176.4217 -4.091,-258.722 -10.5287,-82.3003 -44.623,-131.7396 -88.389,-167.99 -43.766,-36.2504 -99.5381,-44.37 -144.531,-44.242 z"
         stroke="none"
         fill="#fbc32c"
         fill-rule="evenodd"
         id="a"
         style="display:inline"
         sodipodi:nodetypes="ccsccccssczsccccccsscccssccccccccscccccccscszzz"
         inkscape:label="a" />
    </g>
    <path
       d="m 2271.875,534.823 c -2.192,1.1 -6.1,5.511 -11.358,12.819 -4.41,6.128 -10.304,13.778 -13.1,17 -2.795,3.222 -8.354,10.44 -12.352,16.04 -3.999,5.6 -10.635,14.375 -14.748,19.5 -4.113,5.125 -8.539,11.386 -9.837,13.914 -2.499,4.871 -4.684,15.286 -6.483,30.904 -0.601,5.225 -2.198,13.859 -3.547,19.186 -1.349,5.327 -4.506,20.177 -7.016,33 -15.362,78.49 -28.292,130.692 -39.088,157.808 -14.879,37.375 -34.066,66.066 -64.221,96.033 -20.516,20.388 -30.25,26.696 -36.677,23.767 -5.175,-2.357 -5.4,-9.585 -0.766,-24.549 2.174,-7.02 2.495,-9.652 2.147,-17.601 -0.35,-8.009 -0.866,-10.276 -3.6,-15.831 -4.105,-8.337 -13.564,-18.629 -22.937,-24.953 -8.012,-5.407 -8.725,-6.548 -10.318,-16.526 -0.582,-3.638 -1.689,-7.516 -2.461,-8.618 -3.972,-5.672 -10.976,-7.044 -21.513,-4.216 -6.616,1.776 -14.466,1.919 -19.101,0.348 -1.869,-0.634 -6.099,-3.247 -9.399,-5.806 -3.3,-2.56 -8.7,-6.491 -12,-8.737 -3.3,-2.245 -7.115,-5.283 -8.479,-6.752 l -2.479,-2.669 3.835,-3.22 3.836,-3.22 -1.528,-3.655 c -2.144,-5.132 -7.758,-8.508 -17.255,-10.376 -14.232,-2.8 -27.788,-0.261 -52.206,9.779 -21.267,8.744 -41.551,22.88 -61.269,42.699 -20.57,20.675 -31.751,37.769 -39.349,60.16 -5.855,17.252 -7.919,32.157 -7.333,52.949 0.53,18.795 2.213,27.83 7.227,38.781 1.394,3.044 2.5,7.306 2.5,9.63 0,9.112 5.259,23.201 12.79,34.267 8.458,12.427 27.34,26.712 41.21,31.175 1.925,0.62 10.337,2.682 18.694,4.582 16.846,3.831 19.422,4.882 23.858,9.73 6.072,6.635 6.048,6.488 1.44,8.839 -2.286,1.166 -8.154,2.993 -13.04,4.059 -4.885,1.067 -11.326,2.853 -14.312,3.971 -12.665,4.738 -24.621,16.585 -36.059,35.73 -11.175,18.703 -23.219,56.425 -29.611,92.736 -4.568,25.951 -9.315,40.522 -20.089,61.654 -12.117,23.767 -25.212,41.641 -57.761,78.846 -33.947,38.803 -50.592,54.099 -68.62,63.061 -12.086,6.008 -19.534,7.283 -43,7.359 -22.705,0.074 -24.279,-0.276 -35.5,-7.886 -9.514,-6.452 -12.1,-6.458 -14.553,-0.034 -1.624,4.252 -1.624,4.748 0,8.989 2.253,5.901 6.91,9.728 20.531,16.874 6.146,3.224 11.418,6.495 11.715,7.268 1.634,4.26 -7.541,25.385 -15.144,34.869 -2.645,3.3 -7.357,8.475 -10.469,11.5 -7.822,7.602 -13.782,15.387 -14.587,19.052 -0.881,4.008 1.635,6.948 5.943,6.948 3.893,0 6.015,-1.444 16.24,-11.049 14.109,-13.255 16.418,-11.415 7.253,5.779 -9.948,18.662 -10.273,19.445 -10.713,25.812 -0.324,4.672 -0.058,6.341 1.172,7.362 4.212,3.495 11.034,-2.439 22.038,-19.172 4.063,-6.177 8.539,-12.582 9.947,-14.232 l 2.559,-3 0.026,4.5 c 0.017,2.811 -0.948,6.564 -2.569,10 -4.275,9.057 -7.385,17.865 -7.385,20.912 0,4.306 2.893,7.255 7.238,7.378 4.41,0.125 6.841,-1.835 8.682,-7 0.744,-2.085 3.381,-8.29 5.86,-13.79 2.48,-5.5 5.964,-13.568 7.742,-17.928 l 3.232,-7.929 1.571,5.429 c 2.942,10.171 3.721,15.089 3.606,22.761 -0.064,4.217 0.182,8.41 0.546,9.318 0.861,2.15 4.105,2.958 7.179,1.79 4.613,-1.754 5.66,-6.553 6.313,-28.941 0.691,-23.733 0.279,-22.444 11.814,-37 8.795,-11.099 9.821,-11.993 24.549,-21.424 30.341,-19.429 81.689,-57.355 111.254,-82.175 21.834,-18.329 31.933,-29.978 47.277,-54.535 11.002,-17.608 17.952,-31.924 26.028,-53.617 7.615,-20.456 11.477,-28.815 18.036,-39.041 4.766,-7.429 10.946,-14.208 12.953,-14.208 1.918,0 4.197,4.057 5.102,9.082 3.99,22.15 5.77,61.698 4.115,91.418 -2.121,38.065 -3.552,45.233 -13.713,68.684 -3.649,8.424 -6.853,16.93 -7.12,18.903 -1.122,8.321 5.865,13.44 22.684,16.619 7.454,1.41 8.98,1.999 8.428,3.258 -17.15,39.092 -18.82,92.576 -5.393,172.669 7.956,47.462 25.048,117.767 36.166,148.77 8.601,23.985 10.7,35.648 14.864,82.597 4.512,50.86 4.53,50.965 22.384,127.187 17.42,74.375 22.854,100.554 22.318,107.523 -1,12.987 -11.566,23.807 -30.039,30.76 -10.777,4.056 -15.832,7.011 -20.869,12.198 -5.829,6.002 -7.31,9.51 -5.558,13.165 0.698,1.457 2.496,3.237 3.995,3.955 1.5,0.719 13.421,3.162 26.491,5.43 22.811,3.958 24.648,4.126 45.765,4.188 23.65,0.07 31.398,-1.061 37.619,-5.491 7.621,-5.426 7.765,-15.384 0.535,-36.915 -5.918,-17.62 -7.654,-29.706 -7.654,-53.272 0,-20.661 0.832,-30.741 4.764,-57.728 2.398,-16.457 2.698,-21.481 2.714,-45.5 0.02,-29.021 -0.764,-37.724 -6.621,-73.5 l -3.028,-18.5 0.835,-43 c 0.46,-23.65 0.829,-65.725 0.821,-93.5 -0.015,-52.674 -0.758,-66.555 -4.544,-84.909 -3.262,-15.814 -2.386,-19.982 3.623,-17.244 1.855,0.845 2.436,1.886 2.436,4.363 0,9.119 9.899,84.063 16.152,122.29 4.813,29.423 4.803,33.1 -0.185,68 -2.906,20.327 -3.103,23.406 -2.598,40.5 0.734,24.866 3.455,44.689 10.532,76.707 3.257,14.736 6.464,29.482 7.128,32.768 0.663,3.286 3.214,12.961 5.667,21.5 3.46,12.042 4.587,17.813 5.023,25.72 0.669,12.132 -0.222,17.293 -6.428,37.211 -7.491,24.038 -6.41,31.57 6.494,45.249 3.509,3.72 11.021,9.923 16.693,13.783 11.295,7.689 12.522,9.472 12.522,18.2 0,5.644 2.77,13.56 6.418,18.343 1.411,1.85 5.157,4.636 8.324,6.191 5.422,2.663 6.458,2.819 17.758,2.679 13.886,-0.172 48.32,-4.689 52.595,-6.9 6.41,-3.315 3.543,-9.371 -25.548,-53.951 -13.032,-19.972 -25.448,-43.015 -29.095,-54 -2.963,-8.925 -2.983,-23.905 -0.056,-42.418 1.428,-9.03 3.292,-23.43 4.143,-32 1.587,-15.98 4.012,-36.376 7.677,-64.582 1.825,-14.044 2.107,-22.051 2.309,-65.5 0.279,-59.945 0.363,-60.72 12.496,-116 8.69,-39.598 12.496,-62.966 18.077,-111 2.795,-24.057 3.007,-60.146 0.492,-83.5 -3.184,-29.56 -7.63,-60.886 -10.786,-76 -3.976,-19.045 -4.384,-23.479 -2.495,-27.129 0.818,-1.579 6.78,-9.396 13.251,-17.371 18.85,-23.233 28.058,-38.786 32.986,-55.718 5.044,-17.327 6.861,-38.289 4.112,-47.425 -0.739,-2.453 -4.835,-10.512 -9.102,-17.909 -9.604,-16.646 -30.877,-59.829 -46.182,-93.749 -31.067,-68.853 -35.221,-84.555 -34.098,-128.908 0.581,-22.937 1.785,-29.791 8.088,-46.037 6.233,-16.067 18.693,-43.431 35.175,-77.254 27.302,-56.023 50.155,-114.298 58.865,-150.103 6.854,-28.173 8.22,-43.831 9.086,-104.183 0.33,-22.982 0.837,-42.404 1.127,-43.158 0.612,-1.594 3.428,-2.783 12.21,-5.155 7.947,-2.145 15.686,-7.994 22.431,-16.953 2.732,-3.628 5.657,-6.862 6.499,-7.185 2.113,-0.811 4.243,2.416 4.243,6.428 0,3.422 2.853,7.309 5.365,7.309 2.916,0 6.623,-4.22 8.113,-9.236 2.187,-7.368 1.907,-10.771 -1.477,-17.924 -1.65,-3.487 -3.002,-7.24 -3.006,-8.34 -0.014,-4.409 -2.22,-9.473 -5.993,-13.761 -2.67,-3.032 -4.324,-6.112 -5.039,-9.377 -2.023,-9.25 -4.727,-10.77 -18.963,-10.664 -5.775,0.043 -11.287,-0.337 -12.25,-0.845 -2.972,-1.568 -2.035,-6.716 2.886,-15.853 11.102,-20.618 12.364,-23.26 12.364,-25.899 0,-5.13 -5.11,-7.794 -10.125,-5.278"
       stroke="none"
       fill="#345cac"
       fill-rule="evenodd"
       id="enfant"
       style="display:inline"
       sodipodi:nodetypes="ccccsccsccscscccccscccccccccsscsssccccscccsssscsscscsccscccccccccsscccccccccsscsscscccccccscccssssssccssccccsssssccsccscscsscsscssssscscccccccsscccsccsssscscccsscsc"
       sodipodi:insensitive="true" />
    <path
       d="m 2387.574,39.514 c -1.281,1.383 -2.634,3.971 -3.006,5.75 -0.372,1.78 -5.142,26.802 -10.599,55.605 -6.302,33.256 -10.586,53.502 -11.737,55.474 -1.094,1.873 -3.078,3.468 -4.997,4.019 -3.452,0.989 -6.638,-0.364 -30.479,-12.947 -7.399,-3.906 -11.965,-5.703 -14.666,-5.774 -5.445,-0.143 -8.09,2.425 -8.09,7.854 0,3.543 1.686,7.011 10.988,22.595 16.78,28.112 16.833,27.988 -16.488,38.269 -46.294,14.283 -47.722,14.772 -50.129,17.179 -4.078,4.078 -2.805,10.152 2.727,13.013 1.672,0.864 17.475,5.154 35.119,9.534 17.644,4.379 33.608,8.687 35.476,9.573 3.544,1.682 6.307,5.767 6.307,9.324 0,1.145 -4.5,10.806 -10,21.469 -10.953,21.235 -12.079,25.47 -7.883,29.666 3.922,3.922 9.017,2.301 26.89,-8.559 8.761,-5.324 17.217,-10.049 18.791,-10.5 4.091,-1.173 8.527,0.985 10.424,5.072 0.86,1.853 6.824,24.97 13.253,51.37 6.429,26.4 12.398,49.505 13.265,51.344 2.789,5.914 9.317,6.77 12.665,1.66 0.972,-1.483 5.775,-23.189 11.674,-52.761 5.513,-27.634 10.52,-51.515 11.126,-53.07 1.392,-3.574 5.043,-5.999 8.866,-5.89 1.63,0.046 8.693,3.126 15.696,6.843 21.443,11.383 23.588,12.348 27.483,12.361 4.877,0.017 7.75,-2.773 7.75,-7.527 0,-4.236 -1.311,-6.901 -12.591,-25.591 -4.77,-7.903 -9.035,-15.619 -9.479,-17.147 -1.142,-3.934 0.685,-8.326 4.408,-10.594 1.739,-1.059 14.412,-5.368 28.162,-9.574 39.67,-12.137 43.246,-13.416 45.49,-16.268 2.963,-3.768 2.59,-7.62 -1.035,-10.67 -3.548,-2.986 -2.229,-2.59 -38.695,-11.626 -31.471,-7.799 -35.427,-9.116 -38.279,-12.741 -3.215,-4.088 -2.451,-7.646 4.432,-20.641 12.328,-23.275 13.577,-26.021 13.582,-29.858 0.01,-5.607 -2.936,-8.108 -8.861,-7.531 -3.616,0.353 -8.15,2.544 -20.634,9.972 -8.8,5.235 -17.241,9.819 -18.759,10.185 -3.545,0.856 -7.975,-1.399 -9.554,-4.864 -0.661,-1.451 -2.969,-10.373 -5.129,-19.825 -13.047,-57.097 -21.267,-91.254 -22.29,-92.621 -3.575,-4.783 -7.672,-5.351 -11.194,-1.552"
       stroke="none"
       fill="#fbc32c"
       fill-rule="evenodd"
       id="etoile"
       style="display:inline"
       sodipodi:nodetypes="csccccssscscccsssccsscsccsccsscscccccsccccsccc"
       sodipodi:insensitive="true" />
  </g>
</svg>
