<?xml version="1.0" encoding="UTF-8" standalone="no"?>
<svg
   width="2000"
   height="2000"
   viewBox="0 0 2000 2000"
   version="1.1"
   id="svg2"
   sodipodi:docname="favicon.svg"
   inkscape:export-filename="efa44-logo.jpg"
   inkscape:export-xdpi="15"
   inkscape:export-ydpi="15"
   inkscape:version="1.4.2 (ebf0e940, 2025-05-08)"
   xmlns:inkscape="http://www.inkscape.org/namespaces/inkscape"
   xmlns:sodipodi="http://sodipodi.sourceforge.net/DTD/sodipodi-0.dtd"
   xmlns="http://www.w3.org/2000/svg"
   xmlns:svg="http://www.w3.org/2000/svg">
  <defs
     id="defs2">
    <inkscape:path-effect
       effect="fillet_chamfer"
       id="path-effect5"
       is_visible="true"
       lpeversion="1"
       nodesatellites_param="F,0,0,1,0,0,0,1 @ F,0,0,1,0,0,0,1 @ F,0,0,1,0,0,0,1 @ F,0,0,1,0,0,0,1 @ F,0,0,1,0,0,0,1 @ F,0,0,1,0,0,0,1 @ F,0,0,1,0,0,0,1 @ F,0,0,1,0,0,0,1 @ F,0,0,1,0,0,0,1 @ F,0,0,1,0,0,0,1 @ F,0,0,1,0,0,0,1 @ F,0,0,1,0,0,0,1 @ F,0,0,1,0,0,0,1 @ F,0,0,1,0,0,0,1 @ F,0,0,1,0,0,0,1 @ F,0,0,1,0,0,0,1 @ F,0,0,1,0,0,0,1 @ F,0,0,1,0,0,0,1 @ F,0,0,1,0,0,0,1 @ F,0,0,1,0,0,0,1 @ F,0,0,1,0,0,0,1 @ F,0,0,1,0,0,0,1 @ F,0,0,1,0,0,0,1 @ F,0,0,1,0,0,0,1 @ F,0,0,1,0,0,0,1 @ F,0,0,1,0,0,0,1 @ F,0,0,1,0,0,0,1 @ F,0,0,1,0,0,0,1 @ F,0,0,1,0,0,0,1 @ F,0,0,1,0,0,0,1 @ F,0,0,1,0,0,0,1 @ F,0,0,1,0,0,0,1 @ F,0,0,1,0,0,0,1 @ F,0,0,1,0,0,0,1 @ F,0,0,1,0,0,0,1 @ F,0,0,1,0,0,0,1 @ F,0,0,1,0,0,0,1 @ F,0,0,1,0,0,0,1 | F,0,0,1,0,0,0,1 @ F,0,0,1,0,0,0,1 @ F,0,0,1,0,0,0,1 @ F,0,0,1,0,0,0,1 @ F,0,0,1,0,0,0,1 @ F,0,0,1,0,0,0,1 @ F,0,0,1,0,0,0,1 @ F,0,0,1,0,0,0,1 @ F,0,0,1,0,0,0,1 @ F,0,0,1,0,0,0,1"
       radius="0"
       unit="px"
       method="auto"
       mode="F"
       chamfer_steps="1"
       flexible="false"
       use_knot_distance="true"
       apply_no_radius="true"
       apply_with_radius="true"
       only_selected="false"
       hide_knots="false" />
  </defs>
  <sodipodi:namedview
     id="namedview2"
     pagecolor="#ffffff"
     bordercolor="#000000"
     borderopacity="0"
     inkscape:showpageshadow="2"
     inkscape:pageopacity="0.0"
     inkscape:pagecheckerboard="true"
     inkscape:deskcolor="#d1d1d1"
     inkscape:zoom="0.28983784"
     inkscape:cx="1500.8392"
     inkscape:cy="1366.2812"
     inkscape:window-width="1920"
     inkscape:window-height="1147"
     inkscape:window-x="0"
     inkscape:window-y="25"
     inkscape:window-maximized="1"
     inkscape:current-layer="svg2"
     showborder="false"
     inkscape:antialias-rendering="true" />
  <g
     id="g26"
     transform="translate(-372.71684,-444.35995)">
    <g
       id="layer2"
       inkscape:label="EFA"
       style="display:inline"
       sodipodi:insensitive="true"
       transform="translate(460.73827,-107.03232)">
      <path
         d="m 339.5,1464.675 c -44.714,1.018 -81.822,6.382 -109.326,15.803 -19.548,6.696 -30.073,11.565 -46.974,21.735 C 99.957,1552.3 58.095,1624.794 45.315,1741 c -1.601,14.55 -1.814,25.893 -1.806,96 0.009,76.821 0.086,80.123 2.303,97.996 4.024,32.451 10.523,60.24 19.176,82.004 22.113,55.611 58.708,91.984 114.012,113.32 33.89,13.075 70.636,19.424 122.5,21.165 17.141,0.575 152.791,-0.656 232.25,-2.109 l 37.25,-0.68 v -51.702 -51.702 l -106.75,-0.718 c -151.804,-1.021 -170.466,-1.738 -199.708,-7.675 -11.038,-2.241 -28.346,-7.598 -37.25,-11.529 -43,-18.985 -67.005,-55.261 -72.28,-109.226 -0.557,-5.696 -1.012,-25.804 -1.012,-44.685 v -34.33 l 8.25,3.801 c 26.713,12.305 63.839,24.032 94.881,29.971 48.176,9.216 108.116,10.341 157.869,2.963 58.617,-8.693 103.595,-27.127 138.218,-56.647 45.628,-38.905 66.683,-96.133 60.783,-165.217 -4.37,-51.169 -19.377,-90.419 -46.284,-121.049 -29.664,-33.77 -74.824,-55.348 -132.717,-63.416 -21.691,-3.022 -50.485,-3.885 -95.5,-2.86 M 324,1567.054 c -72.419,7.855 -144.467,47.971 -163.993,91.309 -4.734,10.507 -5.007,13.788 -5.007,60.114 v 43.379 l 5.65,2.114 c 16.315,6.105 47.492,13.954 71.465,17.993 58.259,9.815 131.521,9.57 176.885,-0.594 46.223,-10.355 77.763,-31.264 90.533,-60.015 5.543,-12.478 7.67,-21.978 8.215,-36.686 0.829,-22.331 -2.66,-40.733 -10.814,-57.035 -5.287,-10.569 -9.408,-15.976 -19.28,-25.29 -18.797,-17.737 -46.345,-28.887 -83.654,-33.86 -14.648,-1.952 -57.17,-2.82 -70,-1.429"
         stroke="none"
         fill="#345cac"
         fill-rule="evenodd"
         id="e"
         style="display:inline"
         sodipodi:nodetypes="csccsccssccccsscsscccccsccccsscscccccccc" />
      <path
         d="m 982.616,949.098 c -4.335,0.457 -11.728,1.552 -16.428,2.432 -10.382,1.946 -43.454,11.337 -52.863,15.012 -34.665,13.539 -71.169,39.88 -97.425,70.301 -30.96,35.872 -48.119,76.069 -55.598,130.246 -1.592,11.53 -1.736,42.84 -2.023,441.326 -0.217,301.454 -0.625,429.297 -1.373,430.199 -0.796,0.958 -6.853,1.359 -23.96,1.584 -22.296,0.294 -22.954,0.362 -25.17,2.58 l -2.276,2.278 v 51.944 51.944 l 2.278,2.278 2.278,2.278 h 85.444 85.444 l 2.278,-2.278 2.278,-2.277 0.513,-253.223 c 0.484,-238.684 0.616,-253.566 2.288,-259.222 5.156,-17.436 10.005,-25.706 21.531,-36.716 11.861,-11.331 26.897,-18.365 48.122,-22.516 7.299,-1.428 18.789,-1.751 78.769,-2.22 l 70.223,-0.548 2.277,-2.278 2.277,-2.278 V 1518 1466.056 l -2.278,-2.278 -2.277,-2.278 -109.136,-0.263 c -78.101,-0.188 -109.516,-0.579 -110.472,-1.373 -1.106,-0.917 -1.332,-28.3 -1.311,-158.236 0.026,-155.478 0.449,-179.632 3.419,-195.054 3.564,-18.511 11.508,-37.747 21.191,-51.317 20.826,-29.185 61.168,-54.158 100.373,-62.134 28.964,-5.893 54.087,-6.179 84.567,-0.964 11.086,1.897 13.471,2.047 14.818,0.929 4.23,-3.51 0.601,-8.317 -12.894,-17.078 -31.663,-20.558 -76.205,-30.992 -114.884,-26.912"
         stroke="none"
         fill="#fbc32c"
         fill-rule="evenodd"
         id="f"
         style="display:inline"
         sodipodi:nodetypes="cccccsccscccccccccccccccccccccscccccsccc" />
      <path
         d="m 1465.5,1831.697 c -17.686,0.939 -45.76,4.872 -60,8.405 -54.142,13.436 -82.905,38.874 -90.008,79.603 -3.664,21.014 0.443,46.605 10.678,66.53 10.971,21.36 31.741,37.236 60.956,46.595 28.85,9.241 76.864,13.067 109.26,8.706 76.6,-10.312 146.868,-53.023 158.086,-96.088 2.277,-8.745 2.267,-83.947 -0.012,-87.201 -2.841,-4.057 -39.261,-14.193 -68.96,-19.192 -39.364,-6.627 -83.178,-9.313 -120,-7.358 m 75.989,-372.929 c -44.9929,0.128 -117.995,0.697 -117.995,0.697 -64.897,0.383 -131.145,0.998 -147.218,1.366 -28.648,0.656 -29.27,0.714 -31.5,2.947 l -2.276,2.278 v 52.56 52.561 l 2.17,1.757 c 2.034,1.647 10.031,1.801 127.5,2.449 68.932,0.38 131.405,1.148 138.83,1.706 26.0527,1.9556 67.9373,7.6924 97.1,28.057 27.963,19.992 43.145,47.356 48.355,87.155 2.029,15.501 2.211,62.901 0.248,64.531 -0.951,0.789 -5.154,0.018 -15.75,-2.89 -30.048,-8.245 -67.672,-15.29 -101.453,-18.996 -27.945,-3.065 -84.025,-3.857 -110.5,-1.56 -95.761,8.31 -164.119,41.63 -201.286,98.114 -22.703,34.501 -32.768,76.544 -29.779,124.384 1.78,28.481 5.027,46.297 12.561,68.92 13.284,39.89 36.437,70.244 70.504,92.431 27.521,17.924 61.372,29.352 105,35.447 16.007,2.237 74.134,2.563 89,0.5 56.043,-7.778 98.722,-22.318 139.008,-47.357 12.653,-7.865 33.548,-24.373 45.577,-36.01 5.011,-4.848 9.616,-8.815 10.233,-8.815 0.807,0 1.2,12.188 1.401,43.473 l 0.281,43.473 2.278,2.277 2.278,2.277 h 48.944 48.944 l 2.278,-2.278 2.278,-2.278 v -218.222 c 0,-226.268 6.4377,-176.4217 -4.091,-258.722 -10.5287,-82.3003 -44.623,-131.7396 -88.389,-167.99 -43.766,-36.2504 -99.5381,-44.37 -144.531,-44.242 z"
         stroke="none"
         fill="#fbc32c"
         fill-rule="evenodd"
         id="a"
         style="display:inline"
         sodipodi:nodetypes="ccsccccssczsccccccsscccssccccccccscccccccscszzz"
         inkscape:label="a" />
    </g>
  </g>
</svg>
